<svg width="1054" height="273" viewBox="0 0 1054 273" fill="none" xmlns="http://www.w3.org/2000/svg">
<line x1="1.25977" y1="271.877" x2="1052.77" y2="271.877" stroke="#E0E4EC" stroke-width="2" stroke-linecap="round"/>
<line x1="1.25977" y1="35.877" x2="751.351" y2="35.877" stroke="#E0E4EC" stroke-width="2" stroke-linecap="round"/>
<path d="M12.6598 21.877L17.1998 7.47695H20.7298L25.2698 21.877H22.7898L18.6698 8.95695H19.2098L15.1398 21.877H12.6598ZM15.1898 18.757V16.507H22.7498V18.757H15.1898ZM31.7677 22.177C30.6544 22.177 29.7044 21.9303 28.9177 21.437C28.1311 20.937 27.5277 20.257 27.1077 19.397C26.6944 18.537 26.4844 17.5636 26.4777 16.477C26.4844 15.3703 26.7011 14.3903 27.1277 13.537C27.5611 12.677 28.1744 12.0036 28.9677 11.517C29.7611 11.0236 30.7044 10.777 31.7977 10.777C33.0244 10.777 34.0611 11.087 34.9077 11.707C35.7611 12.3203 36.3177 13.1603 36.5777 14.227L34.1777 14.877C33.9911 14.297 33.6811 13.847 33.2477 13.527C32.8144 13.2003 32.3211 13.037 31.7677 13.037C31.1411 13.037 30.6244 13.187 30.2177 13.487C29.8111 13.7803 29.5111 14.187 29.3177 14.707C29.1244 15.227 29.0277 15.817 29.0277 16.477C29.0277 17.5036 29.2577 18.3336 29.7177 18.967C30.1777 19.6003 30.8611 19.917 31.7677 19.917C32.4077 19.917 32.9111 19.7703 33.2777 19.477C33.6511 19.1836 33.9311 18.7603 34.1177 18.207L36.5777 18.757C36.2444 19.857 35.6611 20.7036 34.8277 21.297C33.9944 21.8836 32.9744 22.177 31.7677 22.177ZM42.9787 22.177C41.8653 22.177 40.9153 21.9303 40.1287 21.437C39.342 20.937 38.7387 20.257 38.3187 19.397C37.9053 18.537 37.6953 17.5636 37.6887 16.477C37.6953 15.3703 37.912 14.3903 38.3387 13.537C38.772 12.677 39.3853 12.0036 40.1787 11.517C40.972 11.0236 41.9153 10.777 43.0087 10.777C44.2353 10.777 45.272 11.087 46.1187 11.707C46.972 12.3203 47.5287 13.1603 47.7887 14.227L45.3887 14.877C45.202 14.297 44.892 13.847 44.4587 13.527C44.0253 13.2003 43.532 13.037 42.9787 13.037C42.352 13.037 41.8353 13.187 41.4287 13.487C41.022 13.7803 40.722 14.187 40.5287 14.707C40.3353 15.227 40.2387 15.817 40.2387 16.477C40.2387 17.5036 40.4687 18.3336 40.9287 18.967C41.3887 19.6003 42.072 19.917 42.9787 19.917C43.6187 19.917 44.122 19.7703 44.4887 19.477C44.862 19.1836 45.142 18.7603 45.3287 18.207L47.7887 18.757C47.4553 19.857 46.872 20.7036 46.0387 21.297C45.2053 21.8836 44.1853 22.177 42.9787 22.177ZM54.2696 22.177C53.1896 22.177 52.2463 21.9336 51.4396 21.447C50.6329 20.9603 50.0063 20.2903 49.5596 19.437C49.1196 18.577 48.8996 17.5903 48.8996 16.477C48.8996 15.3436 49.1263 14.3503 49.5796 13.497C50.0329 12.6436 50.6629 11.977 51.4696 11.497C52.2763 11.017 53.2096 10.777 54.2696 10.777C55.3563 10.777 56.3029 11.0203 57.1096 11.507C57.9163 11.9936 58.5429 12.667 58.9896 13.527C59.4363 14.3803 59.6596 15.3636 59.6596 16.477C59.6596 17.597 59.4329 18.587 58.9796 19.447C58.5329 20.3003 57.9063 20.9703 57.0996 21.457C56.2929 21.937 55.3496 22.177 54.2696 22.177ZM54.2696 19.917C55.2296 19.917 55.9429 19.597 56.4096 18.957C56.8763 18.317 57.1096 17.4903 57.1096 16.477C57.1096 15.4303 56.8729 14.597 56.3996 13.977C55.9263 13.3503 55.2163 13.037 54.2696 13.037C53.6229 13.037 53.0896 13.1836 52.6696 13.477C52.2563 13.7636 51.9496 14.167 51.7496 14.687C51.5496 15.2003 51.4496 15.797 51.4496 16.477C51.4496 17.5236 51.6863 18.3603 52.1596 18.987C52.6396 19.607 53.3429 19.917 54.2696 19.917ZM65.9129 22.187C65.1129 22.187 64.4529 22.0536 63.9329 21.787C63.4129 21.5203 62.9996 21.1803 62.6929 20.767C62.3862 20.3536 62.1596 19.9136 62.0129 19.447C61.8662 18.9803 61.7696 18.5403 61.7229 18.127C61.6829 17.707 61.6629 17.367 61.6629 17.107V11.077H64.1029V16.277C64.1029 16.6103 64.1262 16.987 64.1729 17.407C64.2196 17.8203 64.3262 18.2203 64.4929 18.607C64.6662 18.987 64.9196 19.3003 65.2529 19.547C65.5929 19.7936 66.0496 19.917 66.6229 19.917C66.9296 19.917 67.2329 19.867 67.5329 19.767C67.8329 19.667 68.1029 19.497 68.3429 19.257C68.5896 19.0103 68.7862 18.6736 68.9329 18.247C69.0796 17.8203 69.1529 17.2803 69.1529 16.627L70.5829 17.237C70.5829 18.157 70.4029 18.9903 70.0429 19.737C69.6896 20.4836 69.1662 21.0803 68.4729 21.527C67.7796 21.967 66.9262 22.187 65.9129 22.187ZM69.4429 21.877V18.527H69.1529V11.077H71.5729V21.877H69.4429ZM81.8524 21.877V16.677C81.8524 16.337 81.8291 15.9603 81.7824 15.547C81.7358 15.1336 81.6258 14.737 81.4524 14.357C81.2858 13.9703 81.0324 13.6536 80.6924 13.407C80.3591 13.1603 79.9058 13.037 79.3324 13.037C79.0258 13.037 78.7224 13.087 78.4224 13.187C78.1224 13.287 77.8491 13.4603 77.6024 13.707C77.3624 13.947 77.1691 14.2803 77.0224 14.707C76.8758 15.127 76.8024 15.667 76.8024 16.327L75.3724 15.717C75.3724 14.797 75.5491 13.9636 75.9024 13.217C76.2624 12.4703 76.7891 11.877 77.4824 11.437C78.1758 10.9903 79.0291 10.767 80.0424 10.767C80.8424 10.767 81.5024 10.9003 82.0224 11.167C82.5424 11.4336 82.9558 11.7736 83.2624 12.187C83.5691 12.6003 83.7958 13.0403 83.9424 13.507C84.0891 13.9736 84.1824 14.417 84.2224 14.837C84.2691 15.2503 84.2924 15.587 84.2924 15.847V21.877H81.8524ZM74.3624 21.877V11.077H76.5124V14.427H76.8024V21.877H74.3624ZM93.232 21.877C92.5186 22.0103 91.8186 22.067 91.132 22.047C90.452 22.0336 89.842 21.9103 89.302 21.677C88.762 21.437 88.352 21.0603 88.072 20.547C87.8253 20.0803 87.6953 19.6036 87.682 19.117C87.6686 18.6303 87.662 18.0803 87.662 17.467V8.07695H90.062V17.327C90.062 17.7603 90.0653 18.1403 90.072 18.467C90.0853 18.7936 90.1553 19.0603 90.282 19.267C90.522 19.667 90.9053 19.8903 91.432 19.937C91.9586 19.9836 92.5586 19.957 93.232 19.857V21.877ZM85.702 12.967V11.077H93.232V12.967H85.702ZM108.892 22.177C107.839 22.177 106.889 21.9936 106.042 21.627C105.202 21.2603 104.509 20.737 103.962 20.057C103.422 19.3703 103.079 18.557 102.932 17.617L105.432 17.237C105.645 18.0903 106.082 18.7503 106.742 19.217C107.409 19.6836 108.175 19.917 109.042 19.917C109.555 19.917 110.039 19.837 110.492 19.677C110.945 19.517 111.312 19.2836 111.592 18.977C111.879 18.6703 112.022 18.2936 112.022 17.847C112.022 17.647 111.989 17.4636 111.922 17.297C111.855 17.1236 111.755 16.9703 111.622 16.837C111.495 16.7036 111.329 16.5836 111.122 16.477C110.922 16.3636 110.689 16.267 110.422 16.187L106.702 15.087C106.382 14.9936 106.035 14.8703 105.662 14.717C105.295 14.557 104.945 14.3403 104.612 14.067C104.285 13.787 104.015 13.4336 103.802 13.007C103.595 12.5736 103.492 12.0403 103.492 11.407C103.492 10.4803 103.725 9.70362 104.192 9.07695C104.665 8.44362 105.299 7.97029 106.092 7.65695C106.892 7.34362 107.779 7.19029 108.752 7.19695C109.739 7.20362 110.619 7.37362 111.392 7.70695C112.165 8.03362 112.812 8.51029 113.332 9.13695C113.852 9.76362 114.219 10.5203 114.432 11.407L111.842 11.857C111.735 11.3503 111.529 10.9203 111.222 10.567C110.922 10.207 110.552 9.93362 110.112 9.74695C109.679 9.56029 109.215 9.46029 108.722 9.44695C108.242 9.44029 107.795 9.51362 107.382 9.66695C106.975 9.81362 106.645 10.027 106.392 10.307C106.145 10.587 106.022 10.9136 106.022 11.287C106.022 11.6403 106.129 11.9303 106.342 12.157C106.555 12.377 106.819 12.5536 107.132 12.687C107.452 12.8136 107.775 12.9203 108.102 13.007L110.682 13.727C111.035 13.8203 111.432 13.947 111.872 14.107C112.312 14.267 112.735 14.4903 113.142 14.777C113.549 15.0636 113.882 15.4403 114.142 15.907C114.409 16.3736 114.542 16.967 114.542 17.687C114.542 18.4336 114.385 19.0903 114.072 19.657C113.765 20.217 113.349 20.6836 112.822 21.057C112.295 21.4303 111.692 21.7103 111.012 21.897C110.339 22.0836 109.632 22.177 108.892 22.177ZM121.617 22.177C120.523 22.177 119.563 21.9403 118.737 21.467C117.91 20.9936 117.263 20.337 116.797 19.497C116.337 18.657 116.107 17.6903 116.107 16.597C116.107 15.417 116.333 14.3936 116.787 13.527C117.24 12.6536 117.87 11.977 118.677 11.497C119.483 11.017 120.417 10.777 121.477 10.777C122.597 10.777 123.547 11.0403 124.327 11.567C125.113 12.087 125.697 12.8236 126.077 13.777C126.457 14.7303 126.6 15.8536 126.507 17.147H124.117V16.267C124.11 15.0936 123.903 14.237 123.497 13.697C123.09 13.157 122.45 12.887 121.577 12.887C120.59 12.887 119.857 13.1936 119.377 13.807C118.897 14.4136 118.657 15.3036 118.657 16.477C118.657 17.5703 118.897 18.417 119.377 19.017C119.857 19.617 120.557 19.917 121.477 19.917C122.07 19.917 122.58 19.787 123.007 19.527C123.44 19.2603 123.773 18.877 124.007 18.377L126.387 19.097C125.973 20.0703 125.333 20.827 124.467 21.367C123.607 21.907 122.657 22.177 121.617 22.177ZM117.897 17.147V15.327H125.327V17.147H117.897ZM135.068 21.877C134.355 22.0103 133.655 22.067 132.968 22.047C132.288 22.0336 131.678 21.9103 131.138 21.677C130.598 21.437 130.188 21.0603 129.908 20.547C129.661 20.0803 129.531 19.6036 129.518 19.117C129.505 18.6303 129.498 18.0803 129.498 17.467V8.07695H131.898V17.327C131.898 17.7603 131.901 18.1403 131.908 18.467C131.921 18.7936 131.991 19.0603 132.118 19.267C132.358 19.667 132.741 19.8903 133.268 19.937C133.795 19.9836 134.395 19.957 135.068 19.857V21.877ZM127.538 12.967V11.077H135.068V12.967H127.538ZM142.528 21.877C141.815 22.0103 141.115 22.067 140.428 22.047C139.748 22.0336 139.138 21.9103 138.598 21.677C138.058 21.437 137.648 21.0603 137.368 20.547C137.121 20.0803 136.991 19.6036 136.978 19.117C136.965 18.6303 136.958 18.0803 136.958 17.467V8.07695H139.358V17.327C139.358 17.7603 139.361 18.1403 139.368 18.467C139.381 18.7936 139.451 19.0603 139.578 19.267C139.818 19.667 140.201 19.8903 140.728 19.937C141.255 19.9836 141.855 19.957 142.528 19.857V21.877ZM134.998 12.967V11.077H142.528V12.967H134.998ZM145.071 9.43695V7.22695H147.481V9.43695H145.071ZM145.071 21.877V11.077H147.481V21.877H145.071ZM157.946 21.877V16.677C157.946 16.337 157.923 15.9603 157.876 15.547C157.83 15.1336 157.72 14.737 157.546 14.357C157.38 13.9703 157.126 13.6536 156.786 13.407C156.453 13.1603 156 13.037 155.426 13.037C155.12 13.037 154.816 13.087 154.516 13.187C154.216 13.287 153.943 13.4603 153.696 13.707C153.456 13.947 153.263 14.2803 153.116 14.707C152.97 15.127 152.896 15.667 152.896 16.327L151.466 15.717C151.466 14.797 151.643 13.9636 151.996 13.217C152.356 12.4703 152.883 11.877 153.576 11.437C154.27 10.9903 155.123 10.767 156.136 10.767C156.936 10.767 157.596 10.9003 158.116 11.167C158.636 11.4336 159.05 11.7736 159.356 12.187C159.663 12.6003 159.89 13.0403 160.036 13.507C160.183 13.9736 160.276 14.417 160.316 14.837C160.363 15.2503 160.386 15.587 160.386 15.847V21.877H157.946ZM150.456 21.877V11.077H152.606V14.427H152.896V21.877H150.456ZM167.536 26.977C166.936 26.977 166.359 26.8836 165.806 26.697C165.259 26.5103 164.766 26.2403 164.326 25.887C163.886 25.5403 163.526 25.1203 163.246 24.627L165.466 23.527C165.672 23.9203 165.962 24.2103 166.336 24.397C166.716 24.5903 167.119 24.687 167.546 24.687C168.046 24.687 168.492 24.597 168.886 24.417C169.279 24.2436 169.582 23.9836 169.796 23.637C170.016 23.297 170.119 22.8703 170.106 22.357V19.287H170.406V11.077H172.516V22.397C172.516 22.6703 172.502 22.9303 172.476 23.177C172.456 23.4303 172.419 23.677 172.366 23.917C172.206 24.617 171.899 25.1903 171.446 25.637C170.992 26.0903 170.429 26.427 169.756 26.647C169.089 26.867 168.349 26.977 167.536 26.977ZM167.326 22.177C166.332 22.177 165.466 21.927 164.726 21.427C163.986 20.927 163.412 20.247 163.006 19.387C162.599 18.527 162.396 17.557 162.396 16.477C162.396 15.3836 162.599 14.4103 163.006 13.557C163.419 12.697 164.002 12.0203 164.756 11.527C165.509 11.027 166.396 10.777 167.416 10.777C168.442 10.777 169.302 11.027 169.996 11.527C170.696 12.0203 171.226 12.697 171.586 13.557C171.946 14.417 172.126 15.3903 172.126 16.477C172.126 17.5503 171.946 18.5203 171.586 19.387C171.226 20.247 170.689 20.927 169.976 21.427C169.262 21.927 168.379 22.177 167.326 22.177ZM167.696 20.017C168.342 20.017 168.862 19.8703 169.256 19.577C169.656 19.277 169.946 18.8603 170.126 18.327C170.312 17.7936 170.406 17.177 170.406 16.477C170.406 15.7703 170.312 15.1536 170.126 14.627C169.946 14.0936 169.662 13.6803 169.276 13.387C168.889 13.087 168.389 12.937 167.776 12.937C167.129 12.937 166.596 13.097 166.176 13.417C165.756 13.7303 165.446 14.157 165.246 14.697C165.046 15.2303 164.946 15.8236 164.946 16.477C164.946 17.137 165.042 17.737 165.236 18.277C165.436 18.8103 165.739 19.2336 166.146 19.547C166.552 19.8603 167.069 20.017 167.696 20.017Z" fill="#4A94FC"/>
<line x1="1.25977" y1="35.877" x2="185.26" y2="35.877" stroke="#4A94FC" stroke-width="2" stroke-linecap="round"/>
<path d="M211.86 21.877V7.47695H213.64V20.187H220.32V21.877H211.86ZM226.611 22.177C225.538 22.177 224.611 21.9336 223.831 21.447C223.058 20.9603 222.461 20.287 222.041 19.427C221.621 18.567 221.411 17.5803 221.411 16.467C221.411 15.3336 221.625 14.3403 222.051 13.487C222.478 12.6336 223.081 11.9703 223.861 11.497C224.641 11.017 225.558 10.777 226.611 10.777C227.691 10.777 228.621 11.0203 229.401 11.507C230.181 11.987 230.778 12.657 231.191 13.517C231.611 14.3703 231.821 15.3536 231.821 16.467C231.821 17.5936 231.611 18.587 231.191 19.447C230.771 20.3003 230.171 20.9703 229.391 21.457C228.611 21.937 227.685 22.177 226.611 22.177ZM226.611 20.487C227.731 20.487 228.565 20.1136 229.111 19.367C229.658 18.6203 229.931 17.6536 229.931 16.467C229.931 15.247 229.655 14.277 229.101 13.557C228.548 12.8303 227.718 12.467 226.611 12.467C225.858 12.467 225.238 12.637 224.751 12.977C224.265 13.317 223.901 13.787 223.661 14.387C223.421 14.987 223.301 15.6803 223.301 16.467C223.301 17.6803 223.581 18.6536 224.141 19.387C224.701 20.1203 225.525 20.487 226.611 20.487ZM238.393 26.977C237.826 26.977 237.273 26.8903 236.733 26.717C236.193 26.5436 235.696 26.2803 235.243 25.927C234.796 25.5803 234.423 25.1403 234.123 24.607L235.753 23.747C236.02 24.2736 236.396 24.657 236.883 24.897C237.376 25.137 237.883 25.257 238.403 25.257C239.09 25.257 239.66 25.1303 240.113 24.877C240.566 24.6303 240.9 24.2603 241.113 23.767C241.333 23.2736 241.44 22.6603 241.433 21.927V18.977H241.643V11.077H243.223V21.947C243.223 22.2403 243.213 22.5236 243.193 22.797C243.18 23.0703 243.146 23.3403 243.093 23.607C242.953 24.3736 242.676 25.0036 242.263 25.497C241.85 25.997 241.316 26.367 240.663 26.607C240.01 26.8536 239.253 26.977 238.393 26.977ZM238.263 22.177C237.256 22.177 236.393 21.927 235.673 21.427C234.953 20.9203 234.396 20.237 234.003 19.377C233.616 18.517 233.423 17.547 233.423 16.467C233.423 15.387 233.616 14.417 234.003 13.557C234.396 12.697 234.953 12.0203 235.673 11.527C236.393 11.027 237.253 10.777 238.253 10.777C239.273 10.777 240.13 11.0236 240.823 11.517C241.516 12.0103 242.04 12.687 242.393 13.547C242.753 14.407 242.933 15.3803 242.933 16.467C242.933 17.5403 242.753 18.5103 242.393 19.377C242.04 20.237 241.516 20.9203 240.823 21.427C240.13 21.927 239.276 22.177 238.263 22.177ZM238.483 20.547C239.21 20.547 239.806 20.3736 240.273 20.027C240.74 19.6736 241.083 19.1903 241.303 18.577C241.53 17.957 241.643 17.2536 241.643 16.467C241.643 15.667 241.53 14.9636 241.303 14.357C241.083 13.7436 240.743 13.267 240.283 12.927C239.823 12.5803 239.24 12.407 238.533 12.407C237.8 12.407 237.193 12.587 236.713 12.947C236.24 13.307 235.886 13.7936 235.653 14.407C235.426 15.0203 235.313 15.707 235.313 16.467C235.313 17.2336 235.43 17.927 235.663 18.547C235.896 19.1603 236.246 19.647 236.713 20.007C237.186 20.367 237.776 20.547 238.483 20.547ZM246.215 9.16695V7.32695H247.995V9.16695H246.215ZM246.215 21.877V11.077H247.995V21.877H246.215ZM258.686 21.877V16.467C258.686 15.9536 258.639 15.4603 258.546 14.987C258.459 14.5136 258.302 14.0903 258.076 13.717C257.856 13.337 257.556 13.037 257.176 12.817C256.802 12.597 256.329 12.487 255.756 12.487C255.309 12.487 254.902 12.5636 254.536 12.717C254.176 12.8636 253.866 13.0903 253.606 13.397C253.346 13.7036 253.142 14.0903 252.996 14.557C252.856 15.017 252.786 15.5603 252.786 16.187L251.616 15.827C251.616 14.7803 251.802 13.8836 252.176 13.137C252.556 12.3836 253.086 11.807 253.766 11.407C254.452 11.0003 255.259 10.797 256.186 10.797C256.886 10.797 257.482 10.907 257.976 11.127C258.469 11.347 258.879 11.6403 259.206 12.007C259.532 12.367 259.789 12.7736 259.976 13.227C260.162 13.6736 260.292 14.1303 260.366 14.597C260.446 15.057 260.486 15.4936 260.486 15.907V21.877H258.686ZM250.986 21.877V11.077H252.586V13.967H252.786V21.877H250.986ZM271.769 22.177C270.969 22.177 270.223 22.0603 269.529 21.827C268.836 21.5936 268.256 21.227 267.789 20.727C267.429 20.327 267.159 19.887 266.979 19.407C266.806 18.9203 266.709 18.407 266.689 17.867C266.689 17.3403 266.766 16.827 266.919 16.327C267.073 15.8203 267.316 15.3703 267.649 14.977C267.823 14.7636 268.016 14.5836 268.229 14.437C268.449 14.2836 268.669 14.1536 268.889 14.047C268.429 13.5536 268.076 13.0903 267.829 12.657C267.589 12.2236 267.469 11.7003 267.469 11.087C267.469 10.307 267.669 9.60362 268.069 8.97695C268.476 8.34362 269.029 7.88029 269.729 7.58695C270.069 7.44029 270.416 7.34029 270.769 7.28695C271.129 7.22695 271.479 7.19695 271.819 7.19695C272.393 7.19695 272.949 7.27695 273.489 7.43695C274.029 7.59695 274.489 7.85695 274.869 8.21695C275.123 8.43029 275.339 8.67695 275.519 8.95695C275.699 9.23029 275.839 9.51695 275.939 9.81695L274.199 10.267C274.073 9.92695 273.863 9.64029 273.569 9.40695C273.336 9.20695 273.063 9.07029 272.749 8.99695C272.443 8.92362 272.133 8.88695 271.819 8.88695C271.299 8.88695 270.829 8.98695 270.409 9.18695C270.036 9.36695 269.756 9.62029 269.569 9.94695C269.383 10.267 269.289 10.647 269.289 11.087C269.289 11.467 269.353 11.7803 269.479 12.027C269.613 12.267 269.796 12.5236 270.029 12.797C270.169 12.9436 270.326 13.1003 270.499 13.267C270.679 13.427 270.863 13.5936 271.049 13.767L275.289 17.707C275.309 17.5403 275.323 17.3703 275.329 17.197C275.336 17.0236 275.339 16.857 275.339 16.697L275.329 14.707H276.959V17.047C276.959 17.5203 276.943 17.9236 276.909 18.257C276.883 18.5903 276.836 18.867 276.769 19.087L278.599 20.777L277.439 22.017L275.919 20.577C275.659 20.8703 275.349 21.127 274.989 21.347C274.629 21.567 274.269 21.7336 273.909 21.847C273.569 21.9736 273.219 22.0603 272.859 22.107C272.499 22.1536 272.136 22.177 271.769 22.177ZM271.809 20.467C272.136 20.467 272.433 20.447 272.699 20.407C272.966 20.367 273.219 20.2903 273.459 20.177C273.779 20.0236 274.026 19.877 274.199 19.737C274.373 19.597 274.516 19.467 274.629 19.347L270.239 15.327C269.999 15.407 269.773 15.5136 269.559 15.647C269.353 15.7803 269.173 15.937 269.019 16.117C268.846 16.3303 268.716 16.5803 268.629 16.867C268.549 17.1536 268.509 17.457 268.509 17.777C268.516 18.117 268.573 18.4303 268.679 18.717C268.786 19.0036 268.936 19.2603 269.129 19.487C269.423 19.827 269.819 20.077 270.319 20.237C270.819 20.3903 271.316 20.467 271.809 20.467ZM289.348 22.177C288.328 22.177 287.408 22.0036 286.588 21.657C285.775 21.3103 285.101 20.817 284.568 20.177C284.041 19.5303 283.698 18.767 283.538 17.887L285.378 17.597C285.611 18.5036 286.095 19.2136 286.828 19.727C287.568 20.2336 288.438 20.487 289.438 20.487C290.085 20.487 290.668 20.387 291.188 20.187C291.715 19.9803 292.131 19.687 292.438 19.307C292.745 18.927 292.898 18.477 292.898 17.957C292.898 17.637 292.841 17.3636 292.728 17.137C292.621 16.9036 292.471 16.707 292.278 16.547C292.091 16.3803 291.878 16.2403 291.638 16.127C291.398 16.0136 291.148 15.9203 290.888 15.847L287.218 14.757C286.818 14.637 286.431 14.487 286.058 14.307C285.685 14.1203 285.351 13.8903 285.058 13.617C284.765 13.337 284.531 13.0036 284.358 12.617C284.185 12.2236 284.098 11.7603 284.098 11.227C284.098 10.3736 284.318 9.64695 284.758 9.04695C285.205 8.44029 285.808 7.97695 286.568 7.65695C287.328 7.33695 288.185 7.18029 289.138 7.18695C290.105 7.19362 290.968 7.36695 291.728 7.70695C292.495 8.04029 293.128 8.52029 293.628 9.14695C294.135 9.77362 294.475 10.5236 294.648 11.397L292.758 11.727C292.658 11.1403 292.435 10.637 292.088 10.217C291.748 9.79029 291.321 9.46362 290.808 9.23695C290.295 9.00362 289.731 8.88362 289.118 8.87695C288.531 8.87029 288.001 8.96362 287.528 9.15695C287.055 9.35029 286.678 9.62029 286.398 9.96695C286.118 10.307 285.978 10.7003 285.978 11.147C285.978 11.587 286.105 11.9436 286.358 12.217C286.611 12.4836 286.921 12.697 287.288 12.857C287.661 13.0103 288.025 13.137 288.378 13.237L291.118 14.027C291.431 14.1136 291.791 14.2336 292.198 14.387C292.611 14.5403 293.011 14.757 293.398 15.037C293.785 15.3103 294.105 15.677 294.358 16.137C294.611 16.5903 294.738 17.1636 294.738 17.857C294.738 18.5503 294.598 19.167 294.318 19.707C294.045 20.247 293.661 20.7003 293.168 21.067C292.675 21.427 292.101 21.7003 291.448 21.887C290.795 22.0803 290.095 22.177 289.348 22.177ZM301.516 22.177C300.456 22.177 299.529 21.9436 298.736 21.477C297.949 21.0036 297.336 20.347 296.896 19.507C296.456 18.6603 296.236 17.6736 296.236 16.547C296.236 15.367 296.452 14.347 296.886 13.487C297.319 12.6203 297.922 11.9536 298.696 11.487C299.476 11.0136 300.389 10.777 301.436 10.777C302.522 10.777 303.446 11.027 304.206 11.527C304.972 12.027 305.546 12.7403 305.926 13.667C306.312 14.5936 306.479 15.697 306.426 16.977H304.626V16.337C304.606 15.0103 304.336 14.0203 303.816 13.367C303.296 12.707 302.522 12.377 301.496 12.377C300.396 12.377 299.559 12.7303 298.986 13.437C298.412 14.1436 298.126 15.157 298.126 16.477C298.126 17.7503 298.412 18.737 298.986 19.437C299.559 20.137 300.376 20.487 301.436 20.487C302.149 20.487 302.769 20.3236 303.296 19.997C303.822 19.6703 304.236 19.2003 304.536 18.587L306.246 19.177C305.826 20.1303 305.192 20.8703 304.346 21.397C303.506 21.917 302.562 22.177 301.516 22.177ZM297.526 16.977V15.547H305.506V16.977H297.526ZM313.202 22.177C312.109 22.177 311.179 21.9336 310.412 21.447C309.652 20.9536 309.072 20.277 308.672 19.417C308.272 18.557 308.065 17.577 308.052 16.477C308.065 15.3503 308.275 14.3603 308.682 13.507C309.095 12.647 309.685 11.977 310.452 11.497C311.219 11.017 312.142 10.777 313.222 10.777C314.362 10.777 315.342 11.057 316.162 11.617C316.989 12.177 317.542 12.9436 317.822 13.917L316.062 14.447C315.835 13.8203 315.465 13.3336 314.952 12.987C314.445 12.6403 313.862 12.467 313.202 12.467C312.462 12.467 311.852 12.6403 311.372 12.987C310.892 13.327 310.535 13.8003 310.302 14.407C310.069 15.007 309.949 15.697 309.942 16.477C309.955 17.677 310.232 18.647 310.772 19.387C311.319 20.1203 312.129 20.487 313.202 20.487C313.909 20.487 314.495 20.327 314.962 20.007C315.429 19.6803 315.782 19.2103 316.022 18.597L317.822 19.067C317.449 20.0736 316.865 20.8436 316.072 21.377C315.279 21.9103 314.322 22.177 313.202 22.177ZM323.963 22.157C323.27 22.157 322.673 22.047 322.173 21.827C321.68 21.607 321.27 21.3136 320.943 20.947C320.616 20.5803 320.36 20.1736 320.173 19.727C319.986 19.2803 319.853 18.8236 319.773 18.357C319.7 17.8903 319.663 17.4536 319.663 17.047V11.077H321.463V16.487C321.463 16.9936 321.51 17.4836 321.603 17.957C321.696 18.4303 321.853 18.857 322.073 19.237C322.3 19.617 322.6 19.917 322.973 20.137C323.353 20.357 323.826 20.467 324.393 20.467C324.84 20.467 325.246 20.3903 325.613 20.237C325.98 20.0836 326.293 19.857 326.553 19.557C326.813 19.2503 327.013 18.8636 327.153 18.397C327.293 17.9303 327.363 17.387 327.363 16.767L328.533 17.127C328.533 18.167 328.343 19.0636 327.963 19.817C327.59 20.5703 327.06 21.1503 326.373 21.557C325.693 21.957 324.89 22.157 323.963 22.157ZM327.563 21.877V18.987H327.363V11.077H329.153V21.877H327.563ZM331.953 21.877V11.077H333.543V13.687L333.283 13.347C333.409 13.0136 333.573 12.707 333.773 12.427C333.979 12.147 334.209 11.917 334.463 11.737C334.743 11.5103 335.059 11.337 335.413 11.217C335.766 11.097 336.126 11.027 336.493 11.007C336.859 10.9803 337.203 11.0036 337.523 11.077V12.747C337.149 12.647 336.739 12.6203 336.293 12.667C335.846 12.7136 335.433 12.877 335.053 13.157C334.706 13.4036 334.436 13.7036 334.243 14.057C334.056 14.4103 333.926 14.7936 333.853 15.207C333.779 15.6136 333.743 16.0303 333.743 16.457V21.877H331.953ZM339.614 9.16695V7.32695H341.394V9.16695H339.614ZM339.614 21.877V11.077H341.394V21.877H339.614ZM350.424 21.877C349.784 22.0036 349.151 22.0536 348.524 22.027C347.904 22.007 347.351 21.8836 346.864 21.657C346.377 21.4236 346.007 21.0636 345.754 20.577C345.541 20.1503 345.424 19.7203 345.404 19.287C345.391 18.847 345.384 18.3503 345.384 17.797V8.07695H347.164V17.717C347.164 18.157 347.167 18.5336 347.174 18.847C347.187 19.1603 347.257 19.4303 347.384 19.657C347.624 20.0836 348.004 20.3336 348.524 20.407C349.051 20.4803 349.684 20.4603 350.424 20.347V21.877ZM343.194 12.547V11.077H350.424V12.547H343.194ZM353.824 26.677L355.914 20.997L355.944 22.677L351.224 11.077H353.094L356.794 20.407H356.154L359.624 11.077H361.434L355.554 26.677H353.824Z" fill="#717B8C"/>
<line x1="199.26" y1="35.877" x2="373.26" y2="35.877" stroke="#E0E4EC" stroke-width="2" stroke-linecap="round"/>
<path d="M399.66 21.877V7.47695H401.46L408.97 18.727V7.47695H410.77V21.877H408.97L401.46 10.617V21.877H399.66ZM418.166 22.177C417.093 22.177 416.166 21.9336 415.386 21.447C414.613 20.9603 414.016 20.287 413.596 19.427C413.176 18.567 412.966 17.5803 412.966 16.467C412.966 15.3336 413.179 14.3403 413.606 13.487C414.033 12.6336 414.636 11.9703 415.416 11.497C416.196 11.017 417.113 10.777 418.166 10.777C419.246 10.777 420.176 11.0203 420.956 11.507C421.736 11.987 422.333 12.657 422.746 13.517C423.166 14.3703 423.376 15.3536 423.376 16.467C423.376 17.5936 423.166 18.587 422.746 19.447C422.326 20.3003 421.726 20.9703 420.946 21.457C420.166 21.937 419.239 22.177 418.166 22.177ZM418.166 20.487C419.286 20.487 420.119 20.1136 420.666 19.367C421.213 18.6203 421.486 17.6536 421.486 16.467C421.486 15.247 421.209 14.277 420.656 13.557C420.103 12.8303 419.273 12.467 418.166 12.467C417.413 12.467 416.793 12.637 416.306 12.977C415.819 13.317 415.456 13.787 415.216 14.387C414.976 14.987 414.856 15.6803 414.856 16.467C414.856 17.6803 415.136 18.6536 415.696 19.387C416.256 20.1203 417.079 20.487 418.166 20.487ZM431.608 21.877C430.968 22.0036 430.334 22.0536 429.708 22.027C429.088 22.007 428.534 21.8836 428.048 21.657C427.561 21.4236 427.191 21.0636 426.938 20.577C426.724 20.1503 426.608 19.7203 426.588 19.287C426.574 18.847 426.568 18.3503 426.568 17.797V8.07695H428.348V17.717C428.348 18.157 428.351 18.5336 428.358 18.847C428.371 19.1603 428.441 19.4303 428.568 19.657C428.808 20.0836 429.188 20.3336 429.708 20.407C430.234 20.4803 430.868 20.4603 431.608 20.347V21.877ZM424.378 12.547V11.077H431.608V12.547H424.378ZM434 9.16695V7.32695H435.78V9.16695H434ZM434 21.877V11.077H435.78V21.877H434ZM439.811 21.877V10.487C439.811 10.207 439.824 9.92362 439.851 9.63695C439.878 9.34362 439.938 9.06029 440.031 8.78695C440.124 8.50695 440.278 8.25029 440.491 8.01695C440.738 7.74362 441.008 7.55029 441.301 7.43695C441.594 7.31695 441.891 7.24362 442.191 7.21695C442.498 7.19029 442.788 7.17695 443.061 7.17695H444.431V8.65695H443.161C442.634 8.65695 442.241 8.78695 441.981 9.04695C441.721 9.30029 441.591 9.68695 441.591 10.207V21.877H439.811ZM437.981 12.547V11.077H444.431V12.547H437.981ZM446.531 9.16695V7.32695H448.311V9.16695H446.531ZM446.531 21.877V11.077H448.311V21.877H446.531ZM455.87 22.177C454.777 22.177 453.847 21.9336 453.08 21.447C452.32 20.9536 451.74 20.277 451.34 19.417C450.94 18.557 450.733 17.577 450.72 16.477C450.733 15.3503 450.943 14.3603 451.35 13.507C451.763 12.647 452.353 11.977 453.12 11.497C453.887 11.017 454.81 10.777 455.89 10.777C457.03 10.777 458.01 11.057 458.83 11.617C459.657 12.177 460.21 12.9436 460.49 13.917L458.73 14.447C458.503 13.8203 458.133 13.3336 457.62 12.987C457.113 12.6403 456.53 12.467 455.87 12.467C455.13 12.467 454.52 12.6403 454.04 12.987C453.56 13.327 453.203 13.8003 452.97 14.407C452.737 15.007 452.617 15.697 452.61 16.477C452.623 17.677 452.9 18.647 453.44 19.387C453.987 20.1203 454.797 20.487 455.87 20.487C456.577 20.487 457.163 20.327 457.63 20.007C458.097 19.6803 458.45 19.2103 458.69 18.597L460.49 19.067C460.117 20.0736 459.533 20.8436 458.74 21.377C457.947 21.9103 456.99 22.177 455.87 22.177ZM465.503 22.177C464.697 22.177 464.02 22.0303 463.473 21.737C462.933 21.437 462.523 21.0436 462.243 20.557C461.97 20.0703 461.833 19.537 461.833 18.957C461.833 18.3903 461.94 17.9003 462.153 17.487C462.373 17.067 462.68 16.7203 463.073 16.447C463.467 16.167 463.937 15.947 464.483 15.787C464.997 15.647 465.57 15.527 466.203 15.427C466.843 15.3203 467.49 15.2236 468.143 15.137C468.797 15.0503 469.407 14.967 469.973 14.887L469.333 15.257C469.353 14.297 469.16 13.587 468.753 13.127C468.353 12.667 467.66 12.437 466.673 12.437C466.02 12.437 465.447 12.587 464.953 12.887C464.467 13.1803 464.123 13.6603 463.923 14.327L462.233 13.817C462.493 12.8703 462.997 12.127 463.743 11.587C464.49 11.047 465.473 10.777 466.693 10.777C467.673 10.777 468.513 10.9536 469.213 11.307C469.92 11.6536 470.427 12.1803 470.733 12.887C470.887 13.2203 470.983 13.5836 471.023 13.977C471.063 14.3636 471.083 14.7703 471.083 15.197V21.877H469.503V19.287L469.873 19.527C469.467 20.4003 468.897 21.0603 468.163 21.507C467.437 21.9536 466.55 22.177 465.503 22.177ZM465.773 20.687C466.413 20.687 466.967 20.5736 467.433 20.347C467.907 20.1136 468.287 19.8103 468.573 19.437C468.86 19.057 469.047 18.6436 469.133 18.197C469.233 17.8636 469.287 17.4936 469.293 17.087C469.307 16.6736 469.313 16.357 469.313 16.137L469.933 16.407C469.353 16.487 468.783 16.5636 468.223 16.637C467.663 16.7103 467.133 16.7903 466.633 16.877C466.133 16.957 465.683 17.0536 465.283 17.167C464.99 17.2603 464.713 17.3803 464.453 17.527C464.2 17.6736 463.993 17.8636 463.833 18.097C463.68 18.3236 463.603 18.607 463.603 18.947C463.603 19.2403 463.677 19.5203 463.823 19.787C463.977 20.0536 464.21 20.2703 464.523 20.437C464.843 20.6036 465.26 20.687 465.773 20.687ZM479.713 21.877C479.073 22.0036 478.44 22.0536 477.813 22.027C477.193 22.007 476.64 21.8836 476.153 21.657C475.667 21.4236 475.297 21.0636 475.043 20.577C474.83 20.1503 474.713 19.7203 474.693 19.287C474.68 18.847 474.673 18.3503 474.673 17.797V8.07695H476.453V17.717C476.453 18.157 476.457 18.5336 476.463 18.847C476.477 19.1603 476.547 19.4303 476.673 19.657C476.913 20.0836 477.293 20.3336 477.813 20.407C478.34 20.4803 478.973 20.4603 479.713 20.347V21.877ZM472.483 12.547V11.077H479.713V12.547H472.483ZM482.106 9.16695V7.32695H483.886V9.16695H482.106ZM482.106 21.877V11.077H483.886V21.877H482.106ZM491.486 22.177C490.413 22.177 489.486 21.9336 488.706 21.447C487.933 20.9603 487.336 20.287 486.916 19.427C486.496 18.567 486.286 17.5803 486.286 16.467C486.286 15.3336 486.5 14.3403 486.926 13.487C487.353 12.6336 487.956 11.9703 488.736 11.497C489.516 11.017 490.433 10.777 491.486 10.777C492.566 10.777 493.496 11.0203 494.276 11.507C495.056 11.987 495.653 12.657 496.066 13.517C496.486 14.3703 496.696 15.3536 496.696 16.467C496.696 17.5936 496.486 18.587 496.066 19.447C495.646 20.3003 495.046 20.9703 494.266 21.457C493.486 21.937 492.56 22.177 491.486 22.177ZM491.486 20.487C492.606 20.487 493.44 20.1136 493.986 19.367C494.533 18.6203 494.806 17.6536 494.806 16.467C494.806 15.247 494.53 14.277 493.976 13.557C493.423 12.8303 492.593 12.467 491.486 12.467C490.733 12.467 490.113 12.637 489.626 12.977C489.14 13.317 488.776 13.787 488.536 14.387C488.296 14.987 488.176 15.6803 488.176 16.467C488.176 17.6803 488.456 18.6536 489.016 19.387C489.576 20.1203 490.4 20.487 491.486 20.487ZM506.588 21.877V16.467C506.588 15.9536 506.541 15.4603 506.448 14.987C506.361 14.5136 506.205 14.0903 505.978 13.717C505.758 13.337 505.458 13.037 505.078 12.817C504.705 12.597 504.231 12.487 503.658 12.487C503.211 12.487 502.805 12.5636 502.438 12.717C502.078 12.8636 501.768 13.0903 501.508 13.397C501.248 13.7036 501.045 14.0903 500.898 14.557C500.758 15.017 500.688 15.5603 500.688 16.187L499.518 15.827C499.518 14.7803 499.705 13.8836 500.078 13.137C500.458 12.3836 500.988 11.807 501.668 11.407C502.355 11.0003 503.161 10.797 504.088 10.797C504.788 10.797 505.385 10.907 505.878 11.127C506.371 11.347 506.781 11.6403 507.108 12.007C507.435 12.367 507.691 12.7736 507.878 13.227C508.065 13.6736 508.195 14.1303 508.268 14.597C508.348 15.057 508.388 15.4936 508.388 15.907V21.877H506.588ZM498.888 21.877V11.077H500.488V13.967H500.688V21.877H498.888ZM515.068 22.167C513.781 22.167 512.725 21.887 511.898 21.327C511.078 20.7603 510.575 19.9703 510.388 18.957L512.208 18.667C512.355 19.2536 512.691 19.7203 513.218 20.067C513.745 20.407 514.398 20.577 515.178 20.577C515.918 20.577 516.498 20.4236 516.918 20.117C517.338 19.8103 517.548 19.3936 517.548 18.867C517.548 18.5603 517.478 18.3136 517.338 18.127C517.198 17.9336 516.908 17.7536 516.468 17.587C516.035 17.4203 515.378 17.2203 514.498 16.987C513.545 16.7336 512.795 16.4703 512.248 16.197C511.701 15.9236 511.311 15.607 511.078 15.247C510.845 14.887 510.728 14.4503 510.728 13.937C510.728 13.3036 510.901 12.7503 511.248 12.277C511.595 11.797 512.078 11.427 512.698 11.167C513.325 10.907 514.051 10.777 514.878 10.777C515.698 10.777 516.431 10.907 517.078 11.167C517.725 11.427 518.245 11.797 518.638 12.277C519.038 12.7503 519.275 13.3036 519.348 13.937L517.528 14.267C517.441 13.687 517.161 13.2303 516.688 12.897C516.221 12.5636 515.618 12.387 514.878 12.367C514.178 12.3403 513.608 12.4636 513.168 12.737C512.735 13.0103 512.518 13.3803 512.518 13.847C512.518 14.107 512.598 14.3303 512.758 14.517C512.925 14.7036 513.228 14.8803 513.668 15.047C514.115 15.2136 514.761 15.4036 515.608 15.617C516.561 15.857 517.311 16.1203 517.858 16.407C518.411 16.687 518.805 17.0203 519.038 17.407C519.271 17.787 519.388 18.257 519.388 18.817C519.388 19.857 519.005 20.677 518.238 21.277C517.471 21.8703 516.415 22.167 515.068 22.167Z" fill="#717B8C"/>
<line x1="387.26" y1="35.877" x2="531.26" y2="35.877" stroke="#E0E4EC" stroke-width="2" stroke-linecap="round"/>
<path d="M557.66 21.877V7.47695H563.27C564.13 7.47695 564.863 7.65362 565.47 8.00695C566.083 8.36029 566.55 8.82695 566.87 9.40695C567.196 9.98029 567.36 10.6003 567.36 11.267C567.36 12.047 567.16 12.7303 566.76 13.317C566.36 13.9036 565.82 14.307 565.14 14.527L565.12 14.037C566.046 14.2836 566.766 14.737 567.28 15.397C567.793 16.057 568.05 16.8436 568.05 17.757C568.05 18.597 567.876 19.3236 567.53 19.937C567.19 20.5503 566.696 21.027 566.05 21.367C565.41 21.707 564.65 21.877 563.77 21.877H557.66ZM559.46 20.177H563.43C563.963 20.177 564.44 20.0803 564.86 19.887C565.28 19.687 565.61 19.407 565.85 19.047C566.096 18.687 566.22 18.2536 566.22 17.747C566.22 17.2603 566.11 16.8236 565.89 16.437C565.676 16.0503 565.373 15.7436 564.98 15.517C564.593 15.2836 564.143 15.167 563.63 15.167H559.46V20.177ZM559.46 13.487H563.25C563.676 13.487 564.06 13.397 564.4 13.217C564.746 13.0303 565.02 12.7703 565.22 12.437C565.426 12.1036 565.53 11.7136 565.53 11.267C565.53 10.647 565.32 10.1403 564.9 9.74695C564.48 9.35362 563.93 9.15695 563.25 9.15695H559.46V13.487ZM570.243 9.16695V7.32695H572.023V9.16695H570.243ZM570.243 21.877V11.077H572.023V21.877H570.243ZM575.223 21.877V7.17695H577.003V21.877H575.223ZM580.204 21.877V7.17695H581.984V21.877H580.204ZM585.184 9.16695V7.32695H586.964V9.16695H585.184ZM585.184 21.877V11.077H586.964V21.877H585.184ZM597.654 21.877V16.467C597.654 15.9536 597.608 15.4603 597.514 14.987C597.428 14.5136 597.271 14.0903 597.044 13.717C596.824 13.337 596.524 13.037 596.144 12.817C595.771 12.597 595.298 12.487 594.724 12.487C594.278 12.487 593.871 12.5636 593.504 12.717C593.144 12.8636 592.834 13.0903 592.574 13.397C592.314 13.7036 592.111 14.0903 591.964 14.557C591.824 15.017 591.754 15.5603 591.754 16.187L590.584 15.827C590.584 14.7803 590.771 13.8836 591.144 13.137C591.524 12.3836 592.054 11.807 592.734 11.407C593.421 11.0003 594.228 10.797 595.154 10.797C595.854 10.797 596.451 10.907 596.944 11.127C597.438 11.347 597.848 11.6403 598.174 12.007C598.501 12.367 598.758 12.7736 598.944 13.227C599.131 13.6736 599.261 14.1303 599.334 14.597C599.414 15.057 599.454 15.4936 599.454 15.907V21.877H597.654ZM589.954 21.877V11.077H591.554V13.967H591.754V21.877H589.954ZM606.424 26.977C605.858 26.977 605.304 26.8903 604.764 26.717C604.224 26.5436 603.728 26.2803 603.274 25.927C602.828 25.5803 602.454 25.1403 602.154 24.607L603.784 23.747C604.051 24.2736 604.428 24.657 604.914 24.897C605.408 25.137 605.914 25.257 606.434 25.257C607.121 25.257 607.691 25.1303 608.144 24.877C608.598 24.6303 608.931 24.2603 609.144 23.767C609.364 23.2736 609.471 22.6603 609.464 21.927V18.977H609.674V11.077H611.254V21.947C611.254 22.2403 611.244 22.5236 611.224 22.797C611.211 23.0703 611.178 23.3403 611.124 23.607C610.984 24.3736 610.708 25.0036 610.294 25.497C609.881 25.997 609.348 26.367 608.694 26.607C608.041 26.8536 607.284 26.977 606.424 26.977ZM606.294 22.177C605.288 22.177 604.424 21.927 603.704 21.427C602.984 20.9203 602.428 20.237 602.034 19.377C601.648 18.517 601.454 17.547 601.454 16.467C601.454 15.387 601.648 14.417 602.034 13.557C602.428 12.697 602.984 12.0203 603.704 11.527C604.424 11.027 605.284 10.777 606.284 10.777C607.304 10.777 608.161 11.0236 608.854 11.517C609.548 12.0103 610.071 12.687 610.424 13.547C610.784 14.407 610.964 15.3803 610.964 16.467C610.964 17.5403 610.784 18.5103 610.424 19.377C610.071 20.237 609.548 20.9203 608.854 21.427C608.161 21.927 607.308 22.177 606.294 22.177ZM606.514 20.547C607.241 20.547 607.838 20.3736 608.304 20.027C608.771 19.6736 609.114 19.1903 609.334 18.577C609.561 17.957 609.674 17.2536 609.674 16.467C609.674 15.667 609.561 14.9636 609.334 14.357C609.114 13.7436 608.774 13.267 608.314 12.927C607.854 12.5803 607.271 12.407 606.564 12.407C605.831 12.407 605.224 12.587 604.744 12.947C604.271 13.307 603.918 13.7936 603.684 14.407C603.458 15.0203 603.344 15.707 603.344 16.467C603.344 17.2336 603.461 17.927 603.694 18.547C603.928 19.1603 604.278 19.647 604.744 20.007C605.218 20.367 605.808 20.547 606.514 20.547Z" fill="#717B8C"/>
<line x1="545.26" y1="35.877" x2="624.26" y2="35.877" stroke="#E0E4EC" stroke-width="2" stroke-linecap="round"/>
<rect x="0.759766" y="100.377" width="124.995" height="131" rx="17.5" fill="#EDF2F7" stroke="#4C535F" stroke-dasharray="5 5"/>
<path d="M33.8038 189.057C33.1358 189.057 32.5458 188.919 32.0338 188.643C31.5218 188.367 31.1198 187.981 30.8278 187.485C30.5398 186.985 30.3958 186.399 30.3958 185.727V180.243L31.4758 180.237V185.637C31.4758 186.045 31.5438 186.401 31.6798 186.705C31.8198 187.005 32.0038 187.255 32.2318 187.455C32.4598 187.655 32.7098 187.805 32.9818 187.905C33.2578 188.001 33.5318 188.049 33.8038 188.049C34.0798 188.049 34.3558 187.999 34.6318 187.899C34.9078 187.799 35.1578 187.651 35.3818 187.455C35.6098 187.255 35.7918 187.003 35.9278 186.699C36.0638 186.395 36.1318 186.041 36.1318 185.637V180.237H37.2118V185.727C37.2118 186.395 37.0658 186.979 36.7738 187.479C36.4858 187.979 36.0858 188.367 35.5738 188.643C35.0618 188.919 34.4718 189.057 33.8038 189.057ZM41.8679 189.057C41.2599 189.057 40.7479 188.907 40.3319 188.607C39.9159 188.303 39.5999 187.893 39.3839 187.377C39.1719 186.857 39.0659 186.275 39.0659 185.631C39.0659 184.979 39.1719 184.395 39.3839 183.879C39.5999 183.363 39.9159 182.957 40.3319 182.661C40.7519 182.365 41.2659 182.217 41.8739 182.217C42.4739 182.217 42.9899 182.367 43.4219 182.667C43.8579 182.963 44.1919 183.369 44.4239 183.885C44.6559 184.401 44.7719 184.983 44.7719 185.631C44.7719 186.279 44.6559 186.861 44.4239 187.377C44.1919 187.893 43.8579 188.303 43.4219 188.607C42.9899 188.907 42.4719 189.057 41.8679 189.057ZM38.8859 191.757V182.397H39.8399V187.167H39.9599V191.757H38.8859ZM41.7359 188.079C42.1639 188.079 42.5179 187.971 42.7979 187.755C43.0779 187.539 43.2879 187.247 43.4279 186.879C43.5679 186.507 43.6379 186.091 43.6379 185.631C43.6379 185.175 43.5679 184.763 43.4279 184.395C43.2919 184.027 43.0799 183.735 42.7919 183.519C42.5079 183.303 42.1459 183.195 41.7059 183.195C41.2859 183.195 40.9379 183.299 40.6619 183.507C40.3859 183.711 40.1799 183.997 40.0439 184.365C39.9079 184.729 39.8399 185.151 39.8399 185.631C39.8399 186.103 39.9059 186.525 40.0379 186.897C40.1739 187.265 40.3819 187.555 40.6619 187.767C40.9419 187.975 41.2999 188.079 41.7359 188.079ZM46.2072 188.877V180.057H47.2752V188.877H46.2072ZM51.8355 189.057C51.1915 189.057 50.6355 188.911 50.1675 188.619C49.7035 188.327 49.3455 187.923 49.0935 187.407C48.8415 186.891 48.7155 186.299 48.7155 185.631C48.7155 184.951 48.8435 184.355 49.0995 183.843C49.3555 183.331 49.7175 182.933 50.1855 182.649C50.6535 182.361 51.2035 182.217 51.8355 182.217C52.4835 182.217 53.0415 182.363 53.5095 182.655C53.9775 182.943 54.3355 183.345 54.5835 183.861C54.8355 184.373 54.9615 184.963 54.9615 185.631C54.9615 186.307 54.8355 186.903 54.5835 187.419C54.3315 187.931 53.9715 188.333 53.5035 188.625C53.0355 188.913 52.4795 189.057 51.8355 189.057ZM51.8355 188.043C52.5075 188.043 53.0075 187.819 53.3355 187.371C53.6635 186.923 53.8275 186.343 53.8275 185.631C53.8275 184.899 53.6615 184.317 53.3295 183.885C52.9975 183.449 52.4995 183.231 51.8355 183.231C51.3835 183.231 51.0115 183.333 50.7195 183.537C50.4275 183.741 50.2095 184.023 50.0655 184.383C49.9215 184.743 49.8495 185.159 49.8495 185.631C49.8495 186.359 50.0175 186.943 50.3535 187.383C50.6895 187.823 51.1835 188.043 51.8355 188.043ZM58.1246 189.057C57.6406 189.057 57.2346 188.969 56.9066 188.793C56.5826 188.613 56.3366 188.377 56.1686 188.085C56.0046 187.793 55.9226 187.473 55.9226 187.125C55.9226 186.785 55.9866 186.491 56.1146 186.243C56.2466 185.991 56.4306 185.783 56.6666 185.619C56.9026 185.451 57.1846 185.319 57.5126 185.223C57.8206 185.139 58.1646 185.067 58.5446 185.007C58.9286 184.943 59.3166 184.885 59.7086 184.833C60.1006 184.781 60.4666 184.731 60.8066 184.683L60.4226 184.905C60.4346 184.329 60.3186 183.903 60.0746 183.627C59.8346 183.351 59.4186 183.213 58.8266 183.213C58.4346 183.213 58.0906 183.303 57.7946 183.483C57.5026 183.659 57.2966 183.947 57.1766 184.347L56.1626 184.041C56.3186 183.473 56.6206 183.027 57.0686 182.703C57.5166 182.379 58.1066 182.217 58.8386 182.217C59.4266 182.217 59.9306 182.323 60.3506 182.535C60.7746 182.743 61.0786 183.059 61.2626 183.483C61.3546 183.683 61.4126 183.901 61.4366 184.137C61.4606 184.369 61.4726 184.613 61.4726 184.869V188.877H60.5246V187.323L60.7466 187.467C60.5026 187.991 60.1606 188.387 59.7206 188.655C59.2846 188.923 58.7526 189.057 58.1246 189.057ZM58.2866 188.163C58.6706 188.163 59.0026 188.095 59.2826 187.959C59.5666 187.819 59.7946 187.637 59.9666 187.413C60.1386 187.185 60.2506 186.937 60.3026 186.669C60.3626 186.469 60.3946 186.247 60.3986 186.003C60.4066 185.755 60.4106 185.565 60.4106 185.433L60.7826 185.595C60.4346 185.643 60.0926 185.689 59.7566 185.733C59.4206 185.777 59.1026 185.825 58.8026 185.877C58.5026 185.925 58.2326 185.983 57.9926 186.051C57.8166 186.107 57.6506 186.179 57.4946 186.267C57.3426 186.355 57.2186 186.469 57.1226 186.609C57.0306 186.745 56.9846 186.915 56.9846 187.119C56.9846 187.295 57.0286 187.463 57.1166 187.623C57.2086 187.783 57.3486 187.913 57.5366 188.013C57.7286 188.113 57.9786 188.163 58.2866 188.163ZM65.5766 189.057C64.9726 189.057 64.4546 188.907 64.0226 188.607C63.5906 188.303 63.2566 187.893 63.0206 187.377C62.7886 186.861 62.6726 186.279 62.6726 185.631C62.6726 184.983 62.7886 184.401 63.0206 183.885C63.2566 183.369 63.5906 182.963 64.0226 182.667C64.4546 182.367 64.9706 182.217 65.5706 182.217C66.1826 182.217 66.6966 182.365 67.1126 182.661C67.5286 182.957 67.8426 183.363 68.0546 183.879C68.2706 184.395 68.3786 184.979 68.3786 185.631C68.3786 186.275 68.2706 186.857 68.0546 187.377C67.8426 187.893 67.5286 188.303 67.1126 188.607C66.6966 188.907 66.1846 189.057 65.5766 189.057ZM65.7086 188.079C66.1446 188.079 66.5026 187.975 66.7826 187.767C67.0626 187.555 67.2686 187.265 67.4006 186.897C67.5366 186.525 67.6046 186.103 67.6046 185.631C67.6046 185.151 67.5366 184.729 67.4006 184.365C67.2686 183.997 67.0646 183.711 66.7886 183.507C66.5126 183.299 66.1626 183.195 65.7386 183.195C65.2986 183.195 64.9346 183.303 64.6466 183.519C64.3626 183.735 64.1506 184.027 64.0106 184.395C63.8746 184.763 63.8066 185.175 63.8066 185.631C63.8066 186.091 63.8766 186.507 64.0166 186.879C64.1566 187.247 64.3666 187.539 64.6466 187.755C64.9306 187.971 65.2846 188.079 65.7086 188.079ZM67.6046 188.877V184.107H67.4846V180.237H68.5586V188.877H67.6046ZM73.5419 191.757L74.7959 188.349L74.8139 189.357L71.9819 182.397H73.1039L75.3239 187.995H74.9399L77.0219 182.397H78.1079L74.5799 191.757H73.5419ZM81.6246 189.057C80.9806 189.057 80.4246 188.911 79.9566 188.619C79.4926 188.327 79.1346 187.923 78.8826 187.407C78.6306 186.891 78.5046 186.299 78.5046 185.631C78.5046 184.951 78.6326 184.355 78.8886 183.843C79.1446 183.331 79.5066 182.933 79.9746 182.649C80.4426 182.361 80.9926 182.217 81.6246 182.217C82.2726 182.217 82.8306 182.363 83.2986 182.655C83.7666 182.943 84.1246 183.345 84.3726 183.861C84.6246 184.373 84.7506 184.963 84.7506 185.631C84.7506 186.307 84.6246 186.903 84.3726 187.419C84.1206 187.931 83.7606 188.333 83.2926 188.625C82.8246 188.913 82.2686 189.057 81.6246 189.057ZM81.6246 188.043C82.2966 188.043 82.7966 187.819 83.1246 187.371C83.4526 186.923 83.6166 186.343 83.6166 185.631C83.6166 184.899 83.4506 184.317 83.1186 183.885C82.7866 183.449 82.2886 183.231 81.6246 183.231C81.1726 183.231 80.8006 183.333 80.5086 183.537C80.2166 183.741 79.9986 184.023 79.8546 184.383C79.7106 184.743 79.6386 185.159 79.6386 185.631C79.6386 186.359 79.8066 186.943 80.1426 187.383C80.4786 187.823 80.9726 188.043 81.6246 188.043ZM88.5316 189.045C88.1156 189.045 87.7576 188.979 87.4576 188.847C87.1616 188.715 86.9156 188.539 86.7196 188.319C86.5236 188.099 86.3696 187.855 86.2576 187.587C86.1456 187.319 86.0656 187.045 86.0176 186.765C85.9736 186.485 85.9516 186.223 85.9516 185.979V182.397H87.0316V185.643C87.0316 185.947 87.0596 186.241 87.1156 186.525C87.1716 186.809 87.2656 187.065 87.3976 187.293C87.5336 187.521 87.7136 187.701 87.9376 187.833C88.1656 187.965 88.4496 188.031 88.7896 188.031C89.0576 188.031 89.3016 187.985 89.5216 187.893C89.7416 187.801 89.9296 187.665 90.0856 187.485C90.2416 187.301 90.3616 187.069 90.4456 186.789C90.5296 186.509 90.5716 186.183 90.5716 185.811L91.2736 186.027C91.2736 186.651 91.1596 187.189 90.9316 187.641C90.7076 188.093 90.3896 188.441 89.9776 188.685C89.5696 188.925 89.0876 189.045 88.5316 189.045ZM90.6916 188.877V187.143H90.5716V182.397H91.6456V188.877H90.6916ZM93.3255 188.877V182.397H94.2795V183.963L94.1235 183.759C94.1995 183.559 94.2975 183.375 94.4175 183.207C94.5415 183.039 94.6795 182.901 94.8315 182.793C94.9995 182.657 95.1895 182.553 95.4015 182.481C95.6135 182.409 95.8295 182.367 96.0495 182.355C96.2695 182.339 96.4755 182.353 96.6675 182.397V183.399C96.4435 183.339 96.1975 183.323 95.9295 183.351C95.6615 183.379 95.4135 183.477 95.1855 183.645C94.9775 183.793 94.8155 183.973 94.6995 184.185C94.5875 184.397 94.5095 184.627 94.4655 184.875C94.4215 185.119 94.3995 185.369 94.3995 185.625V188.877H93.3255ZM50.3113 205.057C49.7033 205.057 49.1913 204.907 48.7753 204.607C48.3593 204.303 48.0433 203.893 47.8273 203.377C47.6153 202.857 47.5093 202.275 47.5093 201.631C47.5093 200.979 47.6153 200.395 47.8273 199.879C48.0433 199.363 48.3593 198.957 48.7753 198.661C49.1953 198.365 49.7093 198.217 50.3173 198.217C50.9173 198.217 51.4333 198.367 51.8653 198.667C52.3013 198.963 52.6353 199.369 52.8673 199.885C53.0993 200.401 53.2153 200.983 53.2153 201.631C53.2153 202.279 53.0993 202.861 52.8673 203.377C52.6353 203.893 52.3013 204.303 51.8653 204.607C51.4333 204.907 50.9153 205.057 50.3113 205.057ZM47.3293 207.757V198.397H48.2833V203.167H48.4033V207.757H47.3293ZM50.1793 204.079C50.6073 204.079 50.9613 203.971 51.2413 203.755C51.5213 203.539 51.7313 203.247 51.8713 202.879C52.0113 202.507 52.0813 202.091 52.0813 201.631C52.0813 201.175 52.0113 200.763 51.8713 200.395C51.7353 200.027 51.5233 199.735 51.2353 199.519C50.9513 199.303 50.5893 199.195 50.1493 199.195C49.7293 199.195 49.3813 199.299 49.1053 199.507C48.8293 199.711 48.6233 199.997 48.4873 200.365C48.3513 200.729 48.2833 201.151 48.2833 201.631C48.2833 202.103 48.3493 202.525 48.4813 202.897C48.6173 203.265 48.8253 203.555 49.1053 203.767C49.3853 203.975 49.7433 204.079 50.1793 204.079ZM59.1446 204.877V201.631C59.1446 201.323 59.1166 201.027 59.0606 200.743C59.0086 200.459 58.9146 200.205 58.7786 199.981C58.6466 199.753 58.4666 199.573 58.2386 199.441C58.0146 199.309 57.7306 199.243 57.3866 199.243C57.1186 199.243 56.8746 199.289 56.6546 199.381C56.4386 199.469 56.2526 199.605 56.0966 199.789C55.9406 199.973 55.8186 200.205 55.7306 200.485C55.6466 200.761 55.6046 201.087 55.6046 201.463L54.9026 201.247C54.9026 200.619 55.0146 200.081 55.2386 199.633C55.4666 199.181 55.7846 198.835 56.1926 198.595C56.6046 198.351 57.0886 198.229 57.6446 198.229C58.0646 198.229 58.4226 198.295 58.7186 198.427C59.0146 198.559 59.2606 198.735 59.4566 198.955C59.6526 199.171 59.8066 199.415 59.9186 199.687C60.0306 199.955 60.1086 200.229 60.1526 200.509C60.2006 200.785 60.2246 201.047 60.2246 201.295V204.877H59.1446ZM54.5246 204.877V196.237H55.4846V201.007H55.6046V204.877H54.5246ZM64.5445 205.057C63.9005 205.057 63.3445 204.911 62.8765 204.619C62.4125 204.327 62.0545 203.923 61.8025 203.407C61.5505 202.891 61.4245 202.299 61.4245 201.631C61.4245 200.951 61.5525 200.355 61.8085 199.843C62.0645 199.331 62.4265 198.933 62.8945 198.649C63.3625 198.361 63.9125 198.217 64.5445 198.217C65.1925 198.217 65.7505 198.363 66.2185 198.655C66.6865 198.943 67.0445 199.345 67.2925 199.861C67.5445 200.373 67.6705 200.963 67.6705 201.631C67.6705 202.307 67.5445 202.903 67.2925 203.419C67.0405 203.931 66.6805 204.333 66.2125 204.625C65.7445 204.913 65.1885 205.057 64.5445 205.057ZM64.5445 204.043C65.2165 204.043 65.7165 203.819 66.0445 203.371C66.3725 202.923 66.5365 202.343 66.5365 201.631C66.5365 200.899 66.3705 200.317 66.0385 199.885C65.7065 199.449 65.2085 199.231 64.5445 199.231C64.0925 199.231 63.7205 199.333 63.4285 199.537C63.1365 199.741 62.9185 200.023 62.7745 200.383C62.6305 200.743 62.5585 201.159 62.5585 201.631C62.5585 202.359 62.7265 202.943 63.0625 203.383C63.3985 203.823 63.8925 204.043 64.5445 204.043ZM72.6095 204.877C72.2255 204.953 71.8455 204.983 71.4695 204.967C71.0975 204.955 70.7655 204.881 70.4735 204.745C70.1815 204.605 69.9595 204.389 69.8075 204.097C69.6795 203.841 69.6095 203.583 69.5975 203.323C69.5895 203.059 69.5855 202.761 69.5855 202.429V196.597H70.6535V202.381C70.6535 202.645 70.6555 202.871 70.6595 203.059C70.6675 203.247 70.7095 203.409 70.7855 203.545C70.9295 203.801 71.1575 203.951 71.4695 203.995C71.7855 204.039 72.1655 204.027 72.6095 203.959V204.877ZM68.2715 199.279V198.397H72.6095V199.279H68.2715ZM76.4156 205.057C75.7716 205.057 75.2156 204.911 74.7476 204.619C74.2836 204.327 73.9256 203.923 73.6736 203.407C73.4216 202.891 73.2956 202.299 73.2956 201.631C73.2956 200.951 73.4236 200.355 73.6796 199.843C73.9356 199.331 74.2976 198.933 74.7656 198.649C75.2336 198.361 75.7836 198.217 76.4156 198.217C77.0636 198.217 77.6216 198.363 78.0896 198.655C78.5576 198.943 78.9156 199.345 79.1636 199.861C79.4156 200.373 79.5416 200.963 79.5416 201.631C79.5416 202.307 79.4156 202.903 79.1636 203.419C78.9116 203.931 78.5516 204.333 78.0836 204.625C77.6156 204.913 77.0596 205.057 76.4156 205.057ZM76.4156 204.043C77.0876 204.043 77.5876 203.819 77.9156 203.371C78.2436 202.923 78.4076 202.343 78.4076 201.631C78.4076 200.899 78.2416 200.317 77.9096 199.885C77.5776 199.449 77.0796 199.231 76.4156 199.231C75.9636 199.231 75.5916 199.333 75.2996 199.537C75.0076 199.741 74.7896 200.023 74.6456 200.383C74.5016 200.743 74.4296 201.159 74.4296 201.631C74.4296 202.359 74.5976 202.943 74.9336 203.383C75.2696 203.823 75.7636 204.043 76.4156 204.043Z" fill="#4C535F"/>
<path fill-rule="evenodd" clip-rule="evenodd" d="M55.5067 132.635C56.2239 132.141 57.0671 131.877 57.9297 131.877C58.4835 131.877 58.9325 132.34 58.9325 132.912C58.9325 133.483 58.4835 133.946 57.9297 133.946C57.4638 133.946 57.0083 134.089 56.6209 134.356C56.2335 134.623 55.9315 135.003 55.7532 135.447C55.5749 135.891 55.5283 136.38 55.6192 136.851C55.7101 137.323 55.9344 137.756 56.2639 138.096C56.5934 138.436 57.0131 138.667 57.4701 138.761C57.9271 138.855 58.4008 138.807 58.8313 138.623C59.2617 138.439 59.6297 138.127 59.8885 137.727C60.1474 137.328 60.2855 136.858 60.2855 136.377C60.2855 135.806 60.7345 135.342 61.2883 135.342C61.8421 135.342 62.2911 135.806 62.2911 136.377C62.2911 137.267 62.0353 138.137 61.5561 138.877C61.0768 139.617 60.3957 140.194 59.5987 140.534C58.8018 140.875 57.9249 140.964 57.0789 140.79C56.2328 140.617 55.4557 140.188 54.8458 139.559C54.2358 138.93 53.8204 138.128 53.6522 137.255C53.4839 136.382 53.5702 135.477 53.9003 134.655C54.2305 133.833 54.7895 133.13 55.5067 132.635Z" fill="#8D98AA"/>
<path fill-rule="evenodd" clip-rule="evenodd" d="M79.717 137.877C80.2628 137.877 80.7053 138.343 80.7053 138.918V147.634C80.7053 152.093 79.8694 155.485 77.7433 157.737C75.6159 159.991 72.4097 160.877 68.1969 160.877H58.3228C54.1113 160.877 50.9052 159.991 48.7775 157.738C46.6511 155.486 45.8145 152.094 45.8145 147.634V144.13C45.8145 143.555 46.2569 143.089 46.8028 143.089C47.3486 143.089 47.7911 143.555 47.7911 144.13V147.634C47.7911 151.891 48.6017 154.6 50.1789 156.27C51.7548 157.938 54.3087 158.795 58.3228 158.795H68.1969C72.2124 158.795 74.7662 157.938 76.3417 156.269C77.9186 154.599 78.7286 151.89 78.7286 147.634V138.918C78.7286 138.343 79.1711 137.877 79.717 137.877Z" fill="#8D98AA"/>
<path fill-rule="evenodd" clip-rule="evenodd" d="M48.8186 127.952C50.9746 125.745 54.2234 124.877 58.494 124.877H65.1707C65.7212 124.877 66.1674 125.334 66.1674 125.897C66.1674 126.461 65.7212 126.918 65.1707 126.918H58.494C54.4201 126.918 51.8275 127.758 50.2282 129.395C48.6289 131.032 47.8079 133.686 47.8079 137.857C47.8079 138.42 47.3616 138.877 46.8112 138.877C46.2607 138.877 45.8145 138.42 45.8145 137.857C45.8145 133.485 46.6626 130.159 48.8186 127.952Z" fill="#8D98AA"/>
<path fill-rule="evenodd" clip-rule="evenodd" d="M68.1074 130.877C68.1074 130.325 68.5719 129.877 69.1449 129.877H78.7003C79.2732 129.877 79.7377 130.325 79.7377 130.877C79.7377 131.429 79.2732 131.877 78.7003 131.877H69.1449C68.5719 131.877 68.1074 131.429 68.1074 130.877Z" fill="#8D98AA"/>
<path fill-rule="evenodd" clip-rule="evenodd" d="M73.9204 124.877C74.4556 124.877 74.8896 125.356 74.8896 125.947V135.807C74.8896 136.398 74.4556 136.877 73.9204 136.877C73.3851 136.877 72.9512 136.398 72.9512 135.807V125.947C72.9512 125.356 73.3851 124.877 73.9204 124.877Z" fill="#8D98AA"/>
<path fill-rule="evenodd" clip-rule="evenodd" d="M73.0014 144.552L66.1421 150.678L66.1239 150.694C65.29 151.404 64.2437 151.791 63.1638 151.791C62.0839 151.791 61.0376 151.404 60.2037 150.694C60.1947 150.687 60.1858 150.679 60.1771 150.671L59.6476 150.187C59.2042 149.818 58.6596 149.602 58.0908 149.571C57.5186 149.539 56.9514 149.696 56.4706 150.018L48.3332 155.701C47.8789 156.018 47.262 155.895 46.9553 155.425C46.6485 154.955 46.768 154.317 47.2222 154L55.3801 148.303C56.2149 147.74 57.2013 147.467 58.1965 147.521C59.1918 147.576 60.1444 147.957 60.9165 148.609C60.9266 148.617 60.9364 148.626 60.9461 148.635L61.4772 149.12C61.9538 149.52 62.5493 149.739 63.1638 149.739C63.78 149.739 64.3771 149.519 64.8544 149.117L71.7136 142.99L71.7318 142.974C72.5658 142.265 73.6121 141.877 74.692 141.877C75.7718 141.877 76.8181 142.265 77.6521 142.974L77.6703 142.99L80.3631 145.395C80.7779 145.766 80.8237 146.414 80.4654 146.843C80.107 147.272 79.4803 147.319 79.0656 146.949L76.3825 144.552C75.9052 144.149 75.3081 143.929 74.692 143.929C74.0758 143.929 73.4786 144.149 73.0014 144.552Z" fill="#8D98AA"/>
<path d="M4.13977 83.877V79.085L0.259766 72.357H1.91577L4.85977 77.453L7.79577 72.357H9.45177L5.57977 79.085V83.877H4.13977ZM12.966 84.117C12.1073 84.117 11.366 83.9223 10.742 83.533C10.1233 83.1436 9.64602 82.605 9.31002 81.917C8.97402 81.229 8.80602 80.4396 8.80602 79.549C8.80602 78.6423 8.97668 77.8476 9.31802 77.165C9.65935 76.4823 10.142 75.9516 10.766 75.573C11.39 75.189 12.1233 74.997 12.966 74.997C13.83 74.997 14.574 75.1916 15.198 75.581C15.822 75.965 16.2993 76.501 16.63 77.189C16.966 77.8716 17.134 78.6583 17.134 79.549C17.134 80.4503 16.966 81.245 16.63 81.933C16.294 82.6156 15.814 83.1516 15.19 83.541C14.566 83.925 13.8247 84.117 12.966 84.117ZM12.966 82.765C13.862 82.765 14.5287 82.4663 14.966 81.869C15.4033 81.2716 15.622 80.4983 15.622 79.549C15.622 78.573 15.4007 77.797 14.958 77.221C14.5153 76.6396 13.8513 76.349 12.966 76.349C12.3633 76.349 11.8673 76.485 11.478 76.757C11.0887 77.029 10.798 77.405 10.606 77.885C10.414 78.365 10.318 78.9196 10.318 79.549C10.318 80.5196 10.542 81.2983 10.99 81.885C11.438 82.4716 12.0967 82.765 12.966 82.765ZM22.1754 84.101C21.6207 84.101 21.1434 84.013 20.7434 83.837C20.3487 83.661 20.0207 83.4263 19.7594 83.133C19.4981 82.8396 19.2927 82.5143 19.1434 82.157C18.9941 81.7996 18.8874 81.4343 18.8234 81.061C18.7647 80.6876 18.7354 80.3383 18.7354 80.013V75.237H20.1754V79.565C20.1754 79.9703 20.2127 80.3623 20.2874 80.741C20.3621 81.1196 20.4874 81.461 20.6634 81.765C20.8447 82.069 21.0847 82.309 21.3834 82.485C21.6874 82.661 22.0661 82.749 22.5194 82.749C22.8767 82.749 23.2021 82.6876 23.4954 82.565C23.7887 82.4423 24.0394 82.261 24.2474 82.021C24.4554 81.7756 24.6154 81.4663 24.7274 81.093C24.8394 80.7196 24.8954 80.285 24.8954 79.789L25.8314 80.077C25.8314 80.909 25.6794 81.6263 25.3754 82.229C25.0767 82.8316 24.6527 83.2956 24.1034 83.621C23.5594 83.941 22.9167 84.101 22.1754 84.101ZM25.0554 83.877V81.565H24.8954V75.237H26.3274V83.877H25.0554ZM28.5673 83.877V75.237H29.8393V77.325L29.6313 77.053C29.7326 76.7863 29.8633 76.541 30.0233 76.317C30.1886 76.093 30.3726 75.909 30.5753 75.765C30.7993 75.5836 31.0526 75.445 31.3353 75.349C31.6179 75.253 31.9059 75.197 32.1993 75.181C32.4926 75.1596 32.7673 75.1783 33.0233 75.237V76.573C32.7246 76.493 32.3966 76.4716 32.0393 76.509C31.6819 76.5463 31.3513 76.677 31.0473 76.901C30.7699 77.0983 30.5539 77.3383 30.3993 77.621C30.2499 77.9036 30.1459 78.2103 30.0873 78.541C30.0286 78.8663 29.9993 79.1996 29.9993 79.541V83.877H28.5673ZM37.7391 83.877V72.357H42.2911C42.4031 72.357 42.5365 72.3623 42.6911 72.373C42.8458 72.3783 42.9951 72.3943 43.1391 72.421C43.7631 72.517 44.2858 72.7303 44.7071 73.061C45.1338 73.3916 45.4538 73.8103 45.6671 74.317C45.8805 74.8183 45.9871 75.3756 45.9871 75.989C45.9871 76.597 45.8778 77.1543 45.6591 77.661C45.4458 78.1623 45.1258 78.581 44.6991 78.917C44.2778 79.2476 43.7578 79.461 43.1391 79.557C42.9951 79.5783 42.8458 79.5943 42.6911 79.605C42.5365 79.6156 42.4031 79.621 42.2911 79.621H39.1631V83.877H37.7391ZM39.1631 78.269H42.2431C42.3445 78.269 42.4591 78.2636 42.5871 78.253C42.7205 78.2423 42.8458 78.2236 42.9631 78.197C43.3311 78.1116 43.6298 77.957 43.8591 77.733C44.0938 77.5036 44.2645 77.237 44.3711 76.933C44.4778 76.6236 44.5311 76.309 44.5311 75.989C44.5311 75.669 44.4778 75.357 44.3711 75.053C44.2645 74.7436 44.0938 74.4743 43.8591 74.245C43.6298 74.0156 43.3311 73.861 42.9631 73.781C42.8458 73.749 42.7205 73.7303 42.5871 73.725C42.4591 73.7143 42.3445 73.709 42.2431 73.709H39.1631V78.269ZM47.5829 83.877V75.237H48.8549V77.325L48.6469 77.053C48.7482 76.7863 48.8789 76.541 49.0389 76.317C49.2042 76.093 49.3882 75.909 49.5909 75.765C49.8149 75.5836 50.0682 75.445 50.3509 75.349C50.6336 75.253 50.9216 75.197 51.2149 75.181C51.5082 75.1596 51.7829 75.1783 52.0389 75.237V76.573C51.7402 76.493 51.4122 76.4716 51.0549 76.509C50.6976 76.5463 50.3669 76.677 50.0629 76.901C49.7856 77.0983 49.5696 77.3383 49.4149 77.621C49.2656 77.9036 49.1616 78.2103 49.1029 78.541C49.0442 78.8663 49.0149 79.1996 49.0149 79.541V83.877H47.5829ZM57.0754 84.117C56.2167 84.117 55.4754 83.9223 54.8514 83.533C54.2327 83.1436 53.7554 82.605 53.4194 81.917C53.0834 81.229 52.9154 80.4396 52.9154 79.549C52.9154 78.6423 53.0861 77.8476 53.4274 77.165C53.7687 76.4823 54.2514 75.9516 54.8754 75.573C55.4994 75.189 56.2327 74.997 57.0754 74.997C57.9394 74.997 58.6834 75.1916 59.3074 75.581C59.9314 75.965 60.4087 76.501 60.7394 77.189C61.0754 77.8716 61.2434 78.6583 61.2434 79.549C61.2434 80.4503 61.0754 81.245 60.7394 81.933C60.4034 82.6156 59.9234 83.1516 59.2994 83.541C58.6754 83.925 57.9341 84.117 57.0754 84.117ZM57.0754 82.765C57.9714 82.765 58.6381 82.4663 59.0754 81.869C59.5127 81.2716 59.7314 80.4983 59.7314 79.549C59.7314 78.573 59.5101 77.797 59.0674 77.221C58.6247 76.6396 57.9607 76.349 57.0754 76.349C56.4727 76.349 55.9767 76.485 55.5874 76.757C55.1981 77.029 54.9074 77.405 54.7154 77.885C54.5234 78.365 54.4274 78.9196 54.4274 79.549C54.4274 80.5196 54.6514 81.2983 55.0994 81.885C55.5474 82.4716 56.2061 82.765 57.0754 82.765ZM63.8288 83.877V74.765C63.8288 74.541 63.8394 74.3143 63.8608 74.085C63.8821 73.8503 63.9301 73.6236 64.0048 73.405C64.0794 73.181 64.2021 72.9756 64.3728 72.789C64.5701 72.5703 64.7861 72.4156 65.0208 72.325C65.2554 72.229 65.4928 72.1703 65.7328 72.149C65.9781 72.1276 66.2101 72.117 66.4288 72.117H67.5248V73.301H66.5088C66.0874 73.301 65.7728 73.405 65.5648 73.613C65.3568 73.8156 65.2528 74.125 65.2528 74.541V83.877H63.8288ZM62.3648 76.413V75.237H67.5248V76.413H62.3648ZM69.2048 73.709V72.237H70.6288V73.709H69.2048ZM69.2048 83.877V75.237H70.6288V83.877H69.2048ZM73.196 83.877V72.117H74.62V83.877H73.196ZM80.7644 84.117C79.9164 84.117 79.1751 83.9303 78.5404 83.557C77.9111 83.1783 77.4204 82.653 77.0684 81.981C76.7164 81.3036 76.5404 80.5143 76.5404 79.613C76.5404 78.669 76.7137 77.853 77.0604 77.165C77.4071 76.4716 77.8897 75.9383 78.5084 75.565C79.1324 75.1863 79.8631 74.997 80.7004 74.997C81.5697 74.997 82.3084 75.197 82.9164 75.597C83.5297 75.997 83.9884 76.5676 84.2924 77.309C84.6017 78.0503 84.7351 78.933 84.6924 79.957H83.2524V79.445C83.2364 78.3836 83.0204 77.5916 82.6044 77.069C82.1884 76.541 81.5697 76.277 80.7484 76.277C79.8684 76.277 79.1991 76.5596 78.7404 77.125C78.2817 77.6903 78.0524 78.501 78.0524 79.557C78.0524 80.5756 78.2817 81.365 78.7404 81.925C79.1991 82.485 79.8524 82.765 80.7004 82.765C81.2711 82.765 81.7671 82.6343 82.1884 82.373C82.6097 82.1116 82.9404 81.7356 83.1804 81.245L84.5484 81.717C84.2124 82.4796 83.7057 83.0716 83.0284 83.493C82.3564 83.909 81.6017 84.117 80.7644 84.117ZM77.5724 79.957V78.813H83.9564V79.957H77.5724ZM92.8798 83.877V72.357H97.4318C97.5438 72.357 97.6771 72.3623 97.8318 72.373C97.9864 72.3783 98.1358 72.3943 98.2798 72.421C98.9038 72.517 99.4264 72.7303 99.8478 73.061C100.274 73.3916 100.594 73.8103 100.808 74.317C101.021 74.8183 101.128 75.3756 101.128 75.989C101.128 76.597 101.018 77.1543 100.8 77.661C100.586 78.1623 100.266 78.581 99.8398 78.917C99.4184 79.2476 98.8984 79.461 98.2798 79.557C98.1358 79.5783 97.9864 79.5943 97.8318 79.605C97.6771 79.6156 97.5438 79.621 97.4318 79.621H94.3038V83.877H92.8798ZM94.3038 78.269H97.3838C97.4851 78.269 97.5998 78.2636 97.7278 78.253C97.8611 78.2423 97.9864 78.2236 98.1038 78.197C98.4718 78.1116 98.7704 77.957 98.9998 77.733C99.2344 77.5036 99.4051 77.237 99.5118 76.933C99.6184 76.6236 99.6718 76.309 99.6718 75.989C99.6718 75.669 99.6184 75.357 99.5118 75.053C99.4051 74.7436 99.2344 74.4743 98.9998 74.245C98.7704 74.0156 98.4718 73.861 98.1038 73.781C97.9864 73.749 97.8611 73.7303 97.7278 73.725C97.5998 73.7143 97.4851 73.709 97.3838 73.709H94.3038V78.269ZM102.884 73.709V72.237H104.308V73.709H102.884ZM102.884 83.877V75.237H104.308V83.877H102.884ZM110.348 84.117C109.473 84.117 108.729 83.9223 108.116 83.533C107.508 83.1383 107.044 82.597 106.724 81.909C106.404 81.221 106.239 80.437 106.228 79.557C106.239 78.6556 106.407 77.8636 106.732 77.181C107.063 76.493 107.535 75.957 108.148 75.573C108.761 75.189 109.5 74.997 110.364 74.997C111.276 74.997 112.06 75.221 112.716 75.669C113.377 76.117 113.82 76.7303 114.044 77.509L112.636 77.933C112.455 77.4316 112.159 77.0423 111.748 76.765C111.343 76.4876 110.876 76.349 110.348 76.349C109.756 76.349 109.268 76.4876 108.884 76.765C108.5 77.037 108.215 77.4156 108.028 77.901C107.841 78.381 107.745 78.933 107.74 79.557C107.751 80.517 107.972 81.293 108.404 81.885C108.841 82.4716 109.489 82.765 110.348 82.765C110.913 82.765 111.383 82.637 111.756 82.381C112.129 82.1196 112.412 81.7436 112.604 81.253L114.044 81.629C113.745 82.4343 113.279 83.0503 112.644 83.477C112.009 83.9036 111.244 84.117 110.348 84.117ZM120.501 83.877C119.989 83.9783 119.482 84.0183 118.981 83.997C118.485 83.981 118.042 83.8823 117.653 83.701C117.263 83.5143 116.967 83.2263 116.765 82.837C116.594 82.4956 116.501 82.1516 116.485 81.805C116.474 81.453 116.469 81.0556 116.469 80.613V72.837H117.893V80.549C117.893 80.901 117.895 81.2023 117.901 81.453C117.911 81.7036 117.967 81.9196 118.069 82.101C118.261 82.4423 118.565 82.6423 118.981 82.701C119.402 82.7596 119.909 82.7436 120.501 82.653V83.877ZM114.717 76.413V75.237H120.501V76.413H114.717ZM125.535 84.101C124.98 84.101 124.503 84.013 124.103 83.837C123.708 83.661 123.38 83.4263 123.119 83.133C122.857 82.8396 122.652 82.5143 122.503 82.157C122.353 81.7996 122.247 81.4343 122.183 81.061C122.124 80.6876 122.095 80.3383 122.095 80.013V75.237H123.535V79.565C123.535 79.9703 123.572 80.3623 123.647 80.741C123.721 81.1196 123.847 81.461 124.023 81.765C124.204 82.069 124.444 82.309 124.743 82.485C125.047 82.661 125.425 82.749 125.879 82.749C126.236 82.749 126.561 82.6876 126.855 82.565C127.148 82.4423 127.399 82.261 127.607 82.021C127.815 81.7756 127.975 81.4663 128.087 81.093C128.199 80.7196 128.255 80.285 128.255 79.789L129.191 80.077C129.191 80.909 129.039 81.6263 128.735 82.229C128.436 82.8316 128.012 83.2956 127.463 83.621C126.919 83.941 126.276 84.101 125.535 84.101ZM128.415 83.877V81.565H128.255V75.237H129.687V83.877H128.415ZM131.927 83.877V75.237H133.199V77.325L132.991 77.053C133.092 76.7863 133.223 76.541 133.383 76.317C133.548 76.093 133.732 75.909 133.935 75.765C134.159 75.5836 134.412 75.445 134.695 75.349C134.977 75.253 135.265 75.197 135.559 75.181C135.852 75.1596 136.127 75.1783 136.383 75.237V76.573C136.084 76.493 135.756 76.4716 135.399 76.509C135.041 76.5463 134.711 76.677 134.407 76.901C134.129 77.0983 133.913 77.3383 133.759 77.621C133.609 77.9036 133.505 78.2103 133.447 78.541C133.388 78.8663 133.359 79.1996 133.359 79.541V83.877H131.927ZM141.483 84.117C140.635 84.117 139.894 83.9303 139.259 83.557C138.63 83.1783 138.139 82.653 137.787 81.981C137.435 81.3036 137.259 80.5143 137.259 79.613C137.259 78.669 137.432 77.853 137.779 77.165C138.126 76.4716 138.608 75.9383 139.227 75.565C139.851 75.1863 140.582 74.997 141.419 74.997C142.288 74.997 143.027 75.197 143.635 75.597C144.248 75.997 144.707 76.5676 145.011 77.309C145.32 78.0503 145.454 78.933 145.411 79.957H143.971V79.445C143.955 78.3836 143.739 77.5916 143.323 77.069C142.907 76.541 142.288 76.277 141.467 76.277C140.587 76.277 139.918 76.5596 139.459 77.125C139 77.6903 138.771 78.501 138.771 79.557C138.771 80.5756 139 81.365 139.459 81.925C139.918 82.485 140.571 82.765 141.419 82.765C141.99 82.765 142.486 82.6343 142.907 82.373C143.328 82.1116 143.659 81.7356 143.899 81.245L145.267 81.717C144.931 82.4796 144.424 83.0716 143.747 83.493C143.075 83.909 142.32 84.117 141.483 84.117ZM138.291 79.957V78.813H144.675V79.957H138.291Z" fill="#4C535F"/>
</svg>
