<svg width="25" height="25" viewBox="0 0 25 25" fill="none" xmlns="http://www.w3.org/2000/svg">
<path d="M2.20386 12.1783C2.20502 17.0977 5.78226 21.2863 10.6409 22.0573V15.0683H8.10386V12.1783H10.6439V9.97831C10.5303 8.93585 10.8864 7.89691 11.6155 7.14325C12.3446 6.38959 13.3712 5.99933 14.4169 6.07831C15.1674 6.09044 15.916 6.15728 16.6569 6.27831V8.73731H15.3929C14.9577 8.68032 14.5202 8.82404 14.2036 9.12798C13.887 9.43193 13.7256 9.8632 13.7649 10.3003V12.1783H16.5359L16.0929 15.0693H13.7649V22.0573C19.0193 21.2269 22.704 16.4281 22.1494 11.1374C21.5948 5.84668 16.9951 1.91624 11.6827 2.19349C6.37022 2.47074 2.2047 6.85862 2.20386 12.1783Z" fill="#121212"/>
</svg>
