<svg width="19" height="19" viewBox="0 0 19 19" fill="none" xmlns="http://www.w3.org/2000/svg">
<path d="M9.20386 18.2176C6.74386 18.2176 6.45386 18.2046 5.49386 18.1626C4.74523 18.138 4.00629 17.9858 3.30886 17.7126C2.10217 17.243 1.148 16.2885 0.678857 15.0816C0.416164 14.3817 0.274475 13.6421 0.259857 12.8946C0.203857 11.9366 0.203857 11.6226 0.203857 9.18164C0.203857 6.71464 0.216857 6.42664 0.259857 5.47164C0.274795 4.72516 0.416479 3.98665 0.678857 3.28764C1.14749 2.07917 2.10321 1.12381 3.31186 0.655641C4.0105 0.391843 4.7492 0.249785 5.49586 0.235641C6.45086 0.181641 6.76486 0.181641 9.20386 0.181641C11.6839 0.181641 11.9689 0.194641 12.9139 0.235641C13.6624 0.249907 14.4031 0.39195 15.1039 0.655641C16.3122 1.12434 17.2677 2.07952 17.7369 3.28764C18.004 3.99683 18.1464 4.74689 18.1579 5.50464C18.2139 6.46264 18.2139 6.77564 18.2139 9.21564C18.2139 11.6556 18.1999 11.9756 18.1579 12.9226C18.143 13.6708 18.0009 14.4111 17.7379 15.1116C17.2675 16.3193 16.3119 17.2742 15.1039 17.7436C14.4041 18.0058 13.665 18.1475 12.9179 18.1626C11.9629 18.2176 11.6499 18.2176 9.20386 18.2176ZM9.16986 1.76464C6.72386 1.76464 6.46986 1.77664 5.51486 1.81964C4.94484 1.82719 4.38034 1.93238 3.84586 2.13064C3.05661 2.43265 2.43208 3.05463 2.12686 3.84264C1.92707 4.38294 1.82187 4.95362 1.81586 5.52964C1.76286 6.49864 1.76286 6.75264 1.76286 9.18164C1.76286 11.5816 1.77186 11.8726 1.81586 12.8356C1.82481 13.4058 1.92995 13.9704 2.12686 14.5056C2.43253 15.2931 3.05695 15.9146 3.84586 16.2166C4.37997 16.4162 4.94471 16.5214 5.51486 16.5276C6.48286 16.5836 6.73786 16.5836 9.16986 16.5836C11.6229 16.5836 11.8769 16.5716 12.8239 16.5276C13.3943 16.5207 13.9592 16.4155 14.4939 16.2166C15.2783 15.912 15.8988 15.2919 16.2039 14.5076C16.4033 13.9669 16.5084 13.3959 16.5149 12.8196H16.5259C16.5689 11.8636 16.5689 11.6086 16.5689 9.16564C16.5689 6.72264 16.5579 6.46564 16.5149 5.51064C16.5059 4.94109 16.4007 4.37715 16.2039 3.84264C15.8995 3.05721 15.2789 2.43593 14.4939 2.13064C13.9593 1.93138 13.3943 1.82616 12.8239 1.81964C11.8569 1.76464 11.6039 1.76464 9.16986 1.76464ZM9.20386 13.8006C7.33385 13.8019 5.64728 12.6764 4.93072 10.9491C4.21416 9.22182 4.60876 7.23297 5.93049 5.9101C7.25221 4.58723 9.24072 4.19091 10.9686 4.90597C12.6965 5.62103 13.8235 7.30663 13.8239 9.17664C13.8211 11.7277 11.7549 13.7957 9.20386 13.8006ZM9.20386 6.17464C7.547 6.17464 6.20386 7.51779 6.20386 9.17464C6.20386 10.8315 7.547 12.1746 9.20386 12.1746C10.8607 12.1746 12.2039 10.8315 12.2039 9.17464C12.2 7.51938 10.8591 6.17849 9.20386 6.17464ZM14.0039 5.46164C13.4093 5.45943 12.9288 4.97623 12.9299 4.38165C12.931 3.78707 13.4133 3.30565 14.0079 3.30565C14.6024 3.30565 15.0848 3.78706 15.0859 4.38164C15.0861 4.6685 14.9721 4.94366 14.7691 5.14632C14.5661 5.34897 14.2907 5.46244 14.0039 5.46164Z" fill="#121212"/>
</svg>
