<svg width="19" height="18" viewBox="0 0 19 18" fill="none" xmlns="http://www.w3.org/2000/svg">
<path d="M10.3132 1.21437L12.2766 5.13445C12.4212 5.41846 12.6973 5.61569 13.0157 5.65952L17.4259 6.29767C17.6835 6.33361 17.9172 6.4686 18.0751 6.6746C18.2312 6.87797 18.2982 7.13568 18.2603 7.38902C18.2294 7.5994 18.1298 7.794 17.9772 7.94302L14.7816 11.0207C14.5478 11.2355 14.442 11.5537 14.4984 11.8648L15.2852 16.1917C15.369 16.7141 15.0206 17.2067 14.4984 17.3058C14.2832 17.34 14.0627 17.304 13.8687 17.2059L9.93479 15.1696C9.64284 15.0232 9.29796 15.0232 9.00601 15.1696L5.07214 17.2059C4.58878 17.4609 3.98988 17.2874 3.72086 16.814C3.62119 16.6256 3.58591 16.4108 3.61855 16.2013L4.40532 11.8736C4.46177 11.5633 4.35504 11.2433 4.12219 11.0286L0.926576 7.95266C0.54642 7.588 0.534953 6.98754 0.900997 6.60973C0.908936 6.60184 0.917756 6.59308 0.926576 6.58431C1.07829 6.43091 1.27763 6.33361 1.49284 6.30819L5.90301 5.66916C6.22055 5.62445 6.49662 5.42898 6.64216 5.14321L8.535 1.21437C8.70347 0.87776 9.05276 0.668257 9.43203 0.677023H9.55023C9.87922 0.716469 10.1659 0.918959 10.3132 1.21437" fill="#F9A135"/>
</svg>
