<svg width="22" height="18" viewBox="0 0 22 18" fill="none" xmlns="http://www.w3.org/2000/svg">
<path d="M19.1969 2.86475C20.0934 2.32884 20.7641 1.48498 21.0839 0.490747C20.2416 0.990549 19.32 1.34262 18.3589 1.53175C17.0265 0.122274 14.9154 -0.220728 13.2053 0.694402C11.4952 1.60953 10.6094 3.55624 11.0429 5.44675C7.59253 5.27352 4.37789 3.64366 2.19892 0.962747C1.06176 2.92417 1.64287 5.43153 3.52692 6.69275C2.84563 6.67084 2.17945 6.48638 1.58392 6.15475C1.58392 6.17275 1.58392 6.19075 1.58392 6.20875C1.58431 8.2519 3.02429 10.0118 5.02692 10.4167C4.39498 10.5887 3.73213 10.614 3.08892 10.4907C3.65212 12.238 5.26247 13.435 7.09792 13.4707C5.57775 14.6639 3.7004 15.3109 1.76792 15.3077C1.42539 15.3082 1.08313 15.2885 0.74292 15.2487C2.70531 16.5098 4.98929 17.1791 7.32192 17.1767C10.5672 17.199 13.6859 15.9197 15.9806 13.6248C18.2753 11.3299 19.5545 8.21099 19.5319 4.96575C19.5319 4.77975 19.5276 4.59475 19.5189 4.41075C20.3594 3.80335 21.0847 3.0509 21.6609 2.18875C20.8779 2.53581 20.0474 2.76367 19.1969 2.86475Z" fill="#121212"/>
</svg>
