<svg width="43" height="16" viewBox="0 0 43 16" fill="none" xmlns="http://www.w3.org/2000/svg">
<path d="M1.71069 7.2627C1.15841 7.2627 0.710693 7.71041 0.710693 8.2627C0.710693 8.81498 1.15841 9.2627 1.71069 9.2627V7.2627ZM42.4178 8.9698C42.8083 8.57928 42.8083 7.94611 42.4178 7.55559L36.0538 1.19163C35.6633 0.801103 35.0302 0.801103 34.6396 1.19163C34.2491 1.58215 34.2491 2.21532 34.6396 2.60584L40.2965 8.2627L34.6396 13.9195C34.2491 14.3101 34.2491 14.9432 34.6396 15.3338C35.0302 15.7243 35.6633 15.7243 36.0538 15.3338L42.4178 8.9698ZM1.71069 9.2627H41.7107V7.2627H1.71069V9.2627Z" fill="black"/>
</svg>
