<svg width="24" height="26" viewBox="0 0 24 26" fill="none" xmlns="http://www.w3.org/2000/svg">
<path d="M3.25 25.9878C2.5625 25.9878 1.97396 25.743 1.48438 25.2534C0.994792 24.7638 0.75 24.1753 0.75 23.4878V5.98779C0.75 5.30029 0.994792 4.71175 1.48438 4.22217C1.97396 3.73259 2.5625 3.48779 3.25 3.48779H8.5C8.77083 2.73779 9.22396 2.13363 9.85938 1.67529C10.4948 1.21696 11.2083 0.987793 12 0.987793C12.7917 0.987793 13.5052 1.21696 14.1406 1.67529C14.776 2.13363 15.2292 2.73779 15.5 3.48779H20.75C21.4375 3.48779 22.026 3.73259 22.5156 4.22217C23.0052 4.71175 23.25 5.30029 23.25 5.98779V23.4878C23.25 24.1753 23.0052 24.7638 22.5156 25.2534C22.026 25.743 21.4375 25.9878 20.75 25.9878H3.25ZM3.25 23.4878H20.75V5.98779H3.25V23.4878ZM5.75 20.9878H14.5V18.4878H5.75V20.9878ZM5.75 15.9878H18.25V13.4878H5.75V15.9878ZM5.75 10.9878H18.25V8.48779H5.75V10.9878ZM12 5.05029C12.2708 5.05029 12.4948 4.96175 12.6719 4.78467C12.849 4.60759 12.9375 4.38363 12.9375 4.11279C12.9375 3.84196 12.849 3.618 12.6719 3.44092C12.4948 3.26383 12.2708 3.17529 12 3.17529C11.7292 3.17529 11.5052 3.26383 11.3281 3.44092C11.151 3.618 11.0625 3.84196 11.0625 4.11279C11.0625 4.38363 11.151 4.60759 11.3281 4.78467C11.5052 4.96175 11.7292 5.05029 12 5.05029Z" fill="#1C1B1F"/>
</svg>
