<svg width="26" height="26" viewBox="0 0 26 26" fill="none" xmlns="http://www.w3.org/2000/svg">
<path d="M13 25.2398C11.2917 25.2398 9.67709 24.9116 8.15625 24.2554C6.63542 23.5991 5.30729 22.7033 4.17188 21.5679C3.03646 20.4325 2.14063 19.1043 1.48438 17.5835C0.828125 16.0627 0.5 14.4481 0.5 12.7397C0.5 11.0106 0.828125 9.39079 1.48438 7.88037C2.14063 6.36996 3.03646 5.04704 4.17188 3.91162C5.30729 2.7762 6.63542 1.88037 8.15625 1.22412C9.67709 0.567871 11.2917 0.239746 13 0.239746C14.7292 0.239746 16.349 0.567871 17.8594 1.22412C19.3698 1.88037 20.6927 2.7762 21.8281 3.91162C22.9635 5.04704 23.8594 6.36996 24.5156 7.88037C25.1719 9.39079 25.5 11.0106 25.5 12.7397C25.5 14.4481 25.1719 16.0627 24.5156 17.5835C23.8594 19.1043 22.9635 20.4325 21.8281 21.5679C20.6927 22.7033 19.3698 23.5991 17.8594 24.2554C16.349 24.9116 14.7292 25.2398 13 25.2398ZM13 22.6773C13.5417 21.9273 14.0104 21.146 14.4063 20.3335C14.8021 19.521 15.125 18.6564 15.375 17.7397H10.625C10.875 18.6564 11.1979 19.521 11.5938 20.3335C11.9896 21.146 12.4583 21.9273 13 22.6773ZM9.75 22.1773C9.375 21.4898 9.04688 20.7762 8.76563 20.0366C8.48438 19.297 8.25 18.5314 8.0625 17.7397H4.375C4.97917 18.7814 5.73438 19.6877 6.64063 20.4585C7.54688 21.2293 8.58333 21.8023 9.75 22.1773ZM16.25 22.1773C17.4167 21.8023 18.4531 21.2293 19.3594 20.4585C20.2656 19.6877 21.0208 18.7814 21.625 17.7397H17.9375C17.75 18.5314 17.5156 19.297 17.2344 20.0366C16.9531 20.7762 16.625 21.4898 16.25 22.1773ZM3.3125 15.2397H7.5625C7.5 14.8231 7.45313 14.4116 7.42188 14.0054C7.39063 13.5991 7.375 13.1772 7.375 12.7397C7.375 12.3022 7.39063 11.8804 7.42188 11.4741C7.45313 11.0679 7.5 10.6564 7.5625 10.2397H3.3125C3.20833 10.6564 3.13021 11.0679 3.07813 11.4741C3.02604 11.8804 3 12.3022 3 12.7397C3 13.1772 3.02604 13.5991 3.07813 14.0054C3.13021 14.4116 3.20833 14.8231 3.3125 15.2397ZM10.0625 15.2397H15.9375C16 14.8231 16.0469 14.4116 16.0781 14.0054C16.1094 13.5991 16.125 13.1772 16.125 12.7397C16.125 12.3022 16.1094 11.8804 16.0781 11.4741C16.0469 11.0679 16 10.6564 15.9375 10.2397H10.0625C10 10.6564 9.95313 11.0679 9.92188 11.4741C9.89063 11.8804 9.875 12.3022 9.875 12.7397C9.875 13.1772 9.89063 13.5991 9.92188 14.0054C9.95313 14.4116 10 14.8231 10.0625 15.2397ZM18.4375 15.2397H22.6875C22.7917 14.8231 22.8698 14.4116 22.9219 14.0054C22.974 13.5991 23 13.1772 23 12.7397C23 12.3022 22.974 11.8804 22.9219 11.4741C22.8698 11.0679 22.7917 10.6564 22.6875 10.2397H18.4375C18.5 10.6564 18.5469 11.0679 18.5781 11.4741C18.6094 11.8804 18.625 12.3022 18.625 12.7397C18.625 13.1772 18.6094 13.5991 18.5781 14.0054C18.5469 14.4116 18.5 14.8231 18.4375 15.2397ZM17.9375 7.73975H21.625C21.0208 6.69808 20.2656 5.79183 19.3594 5.021C18.4531 4.25016 17.4167 3.67725 16.25 3.30225C16.625 3.98975 16.9531 4.70329 17.2344 5.44287C17.5156 6.18246 17.75 6.94808 17.9375 7.73975ZM10.625 7.73975H15.375C15.125 6.82308 14.8021 5.9585 14.4063 5.146C14.0104 4.3335 13.5417 3.55225 13 2.80225C12.4583 3.55225 11.9896 4.3335 11.5938 5.146C11.1979 5.9585 10.875 6.82308 10.625 7.73975ZM4.375 7.73975H8.0625C8.25 6.94808 8.48438 6.18246 8.76563 5.44287C9.04688 4.70329 9.375 3.98975 9.75 3.30225C8.58333 3.67725 7.54688 4.25016 6.64063 5.021C5.73438 5.79183 4.97917 6.69808 4.375 7.73975Z" fill="#1C1B1F"/>
</svg>
