<svg width="24" height="26" viewBox="0 0 24 26" fill="none" xmlns="http://www.w3.org/2000/svg">
<path d="M12 20.2388C10.8333 20.2388 9.71875 20.4211 8.65625 20.7856C7.59375 21.1502 6.625 21.6971 5.75 22.4263V22.7388H18.25V22.4263C17.375 21.6971 16.4062 21.1502 15.3438 20.7856C14.2812 20.4211 13.1667 20.2388 12 20.2388ZM3.25 21.3013C4.375 20.1971 5.68229 19.3273 7.17188 18.6919C8.66146 18.0565 10.2708 17.7388 12 17.7388C13.7292 17.7388 15.3385 18.0565 16.8281 18.6919C18.3177 19.3273 19.625 20.1971 20.75 21.3013V5.23877H3.25V21.3013ZM12 15.2388C10.7917 15.2388 9.76042 14.8117 8.90625 13.9575C8.05208 13.1034 7.625 12.0721 7.625 10.8638C7.625 9.65544 8.05208 8.62419 8.90625 7.77002C9.76042 6.91585 10.7917 6.48877 12 6.48877C13.2083 6.48877 14.2396 6.91585 15.0938 7.77002C15.9479 8.62419 16.375 9.65544 16.375 10.8638C16.375 12.0721 15.9479 13.1034 15.0938 13.9575C14.2396 14.8117 13.2083 15.2388 12 15.2388ZM12 12.7388C12.5208 12.7388 12.9635 12.5565 13.3281 12.1919C13.6927 11.8273 13.875 11.3846 13.875 10.8638C13.875 10.3429 13.6927 9.90023 13.3281 9.53564C12.9635 9.17106 12.5208 8.98877 12 8.98877C11.4792 8.98877 11.0365 9.17106 10.6719 9.53564C10.3073 9.90023 10.125 10.3429 10.125 10.8638C10.125 11.3846 10.3073 11.8273 10.6719 12.1919C11.0365 12.5565 11.4792 12.7388 12 12.7388ZM3.25 25.2388C2.5625 25.2388 1.97396 24.994 1.48438 24.5044C0.994792 24.0148 0.75 23.4263 0.75 22.7388V5.23877C0.75 4.55127 0.994792 3.96273 1.48438 3.47314C1.97396 2.98356 2.5625 2.73877 3.25 2.73877H4.5V0.23877H7V2.73877H17V0.23877H19.5V2.73877H20.75C21.4375 2.73877 22.026 2.98356 22.5156 3.47314C23.0052 3.96273 23.25 4.55127 23.25 5.23877V22.7388C23.25 23.4263 23.0052 24.0148 22.5156 24.5044C22.026 24.994 21.4375 25.2388 20.75 25.2388H3.25Z" fill="#1C1B1F"/>
</svg>
