<svg width="12" height="22" viewBox="0 0 12 22" fill="none" xmlns="http://www.w3.org/2000/svg">
<path d="M4.86232 21.2388V18.7304C3.83177 18.4971 2.94238 18.0499 2.19415 17.3888C1.44515 16.7277 0.895654 15.7943 0.545654 14.5888L2.70399 13.7138C2.99566 14.6471 3.42849 15.3568 4.00249 15.8429C4.57571 16.329 5.32899 16.5721 6.26232 16.5721C7.05955 16.5721 7.73543 16.3924 8.28999 16.0331C8.84377 15.673 9.12066 15.1138 9.12066 14.3554C9.12066 13.6749 8.90677 13.1351 8.47899 12.7361C8.05121 12.3379 7.05954 11.886 5.50399 11.3804C3.83177 10.8554 2.68454 10.2285 2.06232 9.49977C1.4401 8.77021 1.12899 7.88044 1.12899 6.83044C1.12899 5.56655 1.53732 4.5846 2.35399 3.8846C3.17066 3.1846 4.00677 2.78599 4.86232 2.68877V0.23877H7.19566V2.68877C8.16788 2.84432 8.97016 3.19899 9.60249 3.75277C10.234 4.30732 10.6957 4.98321 10.9873 5.78044L8.82899 6.71377C8.59566 6.09155 8.2651 5.62488 7.83732 5.31377C7.40954 5.00266 6.82621 4.8471 6.08732 4.8471C5.23177 4.8471 4.58038 5.03688 4.13315 5.41644C3.68593 5.79521 3.46232 6.26655 3.46232 6.83044C3.46232 7.4721 3.75399 7.97766 4.33732 8.3471C4.92066 8.71655 5.93177 9.10544 7.37066 9.51377C8.71232 9.90266 9.72849 10.5198 10.4192 11.3653C11.109 12.2115 11.454 13.1888 11.454 14.2971C11.454 15.6777 11.0457 16.7277 10.229 17.4471C9.41232 18.1665 8.40121 18.6138 7.19566 18.7888V21.2388H4.86232Z" fill="#1C1B1F"/>
</svg>
