<svg width="21" height="37" viewBox="0 0 21 37" fill="none" xmlns="http://www.w3.org/2000/svg">
<path d="M1.23961 20.7798L15.7356 35.7673C17.4438 37.5361 20.1199 36.0986 20.1199 33.4142V3.4392C20.1203 2.83844 19.9742 2.25026 19.6991 1.7451C19.4239 1.23995 19.0314 0.839225 18.5685 0.590926C18.1056 0.342626 17.5919 0.257275 17.089 0.345093C16.5862 0.432911 16.1153 0.690176 15.733 1.08608L1.24226 16.0736C0.958235 16.3669 0.730597 16.7286 0.574627 17.1345C0.418655 17.5404 0.337961 17.9809 0.337961 18.4267C0.337961 18.8725 0.418655 19.3131 0.574627 19.7189C0.730597 20.1248 0.958235 20.4865 1.24226 20.7798H1.23961Z" fill="#4A94FC"/>
</svg>
