<svg width="324" height="195" viewBox="0 0 324 195" fill="none" xmlns="http://www.w3.org/2000/svg">
<path d="M252.715 124.035C238.755 124.035 225.108 120.411 213.5 113.62C201.892 106.828 192.845 97.1758 187.503 85.8824C182.16 74.5891 180.762 62.1622 183.486 50.1733C186.21 38.1844 192.932 27.1718 202.804 18.5283C212.675 9.88475 225.253 3.99841 238.945 1.61366C252.637 -0.771072 266.83 0.452866 279.727 5.13071C292.625 9.80856 303.649 17.7302 311.405 27.894C319.161 38.0577 323.301 50.007 323.301 62.2308L323.624 71.0601C323.624 103.843 308.75 135.284 282.276 158.465C255.801 181.646 219.893 194.669 182.452 194.669V159.352C195.7 159.384 208.824 157.115 221.064 152.678C233.304 148.24 244.419 141.722 253.764 133.5C257.396 130.326 260.747 126.914 263.787 123.294C260.177 123.788 256.487 124.053 252.736 124.053L252.715 124.035ZM71.2095 124.035C57.2489 124.035 43.6019 120.411 31.9942 113.62C20.3864 106.828 11.3393 97.1758 5.9968 85.8824C0.654358 74.5891 -0.7435 62.1622 1.98007 50.1733C4.70364 38.1844 11.4263 27.1718 21.2979 18.5283C31.1694 9.88475 43.7466 3.99841 57.4389 1.61366C71.1311 -0.771072 85.3236 0.452866 98.2214 5.13071C111.119 9.80856 122.143 17.7302 129.899 27.894C137.655 38.0577 141.795 50.007 141.795 62.2308L142.118 71.0601C142.118 103.843 127.244 135.284 100.77 158.465C74.2949 181.646 38.3874 194.669 0.946472 194.669V159.352C14.1944 159.384 27.3179 157.115 39.5582 152.678C51.7985 148.24 62.9127 141.722 72.2582 133.5C75.8904 130.326 79.2411 126.914 82.2813 123.294C78.6714 123.788 74.9808 124.035 71.2095 124.035Z" fill="#D9D9D9" fill-opacity="0.15"/>
</svg>
