<svg width="20" height="37" viewBox="0 0 20 37" fill="none" xmlns="http://www.w3.org/2000/svg">
<path d="M19.0079 20.7798L4.51193 35.7673C2.80371 37.5361 0.127687 36.0986 0.127687 33.4142V3.4392C0.127251 2.83844 0.273354 2.25026 0.548501 1.7451C0.823648 1.23995 1.21617 0.839225 1.67907 0.590926C2.14197 0.342626 2.65563 0.257275 3.15852 0.345093C3.66141 0.432911 4.13222 0.690176 4.51457 1.08608L19.0053 16.0736C19.2893 16.3669 19.517 16.7286 19.6729 17.1345C19.8289 17.5404 19.9096 17.9809 19.9096 18.4267C19.9096 18.8725 19.8289 19.3131 19.6729 19.7189C19.517 20.1248 19.2893 20.4865 19.0053 20.7798H19.0079Z" fill="#4A94FC"/>
</svg>
