<svg width="38" height="43" viewBox="0 0 38 43" fill="none" xmlns="http://www.w3.org/2000/svg">
<path fill-rule="evenodd" clip-rule="evenodd" d="M0.855469 31.9161V16.0557H37.2248V32.0432C37.2248 38.5827 33.2326 42.6036 26.845 42.6036H11.2153C4.88764 42.6036 0.855469 38.4994 0.855469 31.9161ZM10.876 26.7911C9.95779 26.8348 9.19926 26.0827 9.15934 25.1265C9.15934 24.1682 9.87794 23.3765 10.7962 23.3327C11.6944 23.3327 12.433 24.064 12.4529 24.9994C12.4929 25.9598 11.7743 26.7515 10.876 26.7911ZM19.0801 26.7911C18.1618 26.8348 17.4033 26.0827 17.3634 25.1265C17.3634 24.1682 18.082 23.3765 19.0002 23.3327C19.8985 23.3327 20.637 24.064 20.657 24.9994C20.6969 25.9598 19.9783 26.7515 19.0801 26.7911ZM27.2242 34.4577C26.306 34.4369 25.5675 33.6452 25.5675 32.6869C25.5475 31.7286 26.2861 30.939 27.2043 30.9182H27.2242C28.1624 30.9182 28.9209 31.7098 28.9209 32.6869C28.9209 33.6661 28.1624 34.4577 27.2242 34.4577ZM17.3634 32.6869C17.4033 33.6453 18.1618 34.3973 19.0801 34.3536C19.9783 34.314 20.6969 33.5223 20.657 32.564C20.637 31.6265 19.8985 30.8952 19.0002 30.8952C18.082 30.939 17.3634 31.7286 17.3634 32.6869ZM9.13938 32.6869C9.1793 33.6453 9.93783 34.3973 10.856 34.3536C11.7543 34.314 12.4729 33.5223 12.433 32.564C12.413 31.6265 11.6745 30.8952 10.7762 30.8952C9.85798 30.939 9.13938 31.7286 9.13938 32.6869ZM25.5874 25.1057C25.5874 24.1473 26.306 23.3765 27.2242 23.3557C28.1225 23.3557 28.8411 24.1036 28.881 25.0223C28.901 25.9807 28.1824 26.7723 27.2841 26.7911C26.3659 26.8119 25.6074 26.0827 25.5874 25.1265V25.1057Z" fill="#4A94FC"/>
<path opacity="0.4" d="M0.862305 16.0556C0.888254 14.8327 0.98806 12.4056 1.1757 11.6243C2.13383 7.2306 5.38751 4.43893 10.0385 4.04102H28.0435C32.6545 4.45977 35.9481 7.27018 36.9063 11.6243C37.0919 12.3848 37.1917 14.8306 37.2177 16.0556H0.862305Z" fill="#4A94FC"/>
<path d="M11.5741 10.4995C12.4524 10.4995 13.1111 9.81409 13.1111 8.89534V2.54326C13.1111 1.62451 12.4524 0.937012 11.5741 0.937012C10.6958 0.937012 10.0371 1.62451 10.0371 2.54326V8.89534C10.0371 9.81409 10.6958 10.4995 11.5741 10.4995" fill="#4A94FC"/>
<path d="M26.5058 10.4995C27.3641 10.4995 28.0428 9.81409 28.0428 8.89534V2.54326C28.0428 1.62451 27.3641 0.937012 26.5058 0.937012C25.6275 0.937012 24.9688 1.62451 24.9688 2.54326V8.89534C24.9688 9.81409 25.6275 10.4995 26.5058 10.4995" fill="#4A94FC"/>
</svg>
