<svg width="30" height="42" viewBox="0 0 30 42" fill="none" xmlns="http://www.w3.org/2000/svg">
<path fill-rule="evenodd" clip-rule="evenodd" d="M19.9009 5.48177C19.9009 8.35823 17.6277 10.6901 14.8237 10.6901C12.0197 10.6901 9.74658 8.35823 9.74658 5.48177C9.74658 2.60529 12.0197 0.273438 14.8237 0.273438C17.6277 0.273438 19.9009 2.60529 19.9009 5.48177ZM17.87 5.48177C17.87 7.20771 16.5062 8.60677 14.8237 8.60677C13.1413 8.60677 11.7774 7.20771 11.7774 5.48177C11.7774 3.75589 13.1413 2.35677 14.8237 2.35677C16.5062 2.35677 17.87 3.75589 17.87 5.48177Z" fill="#4A94FC"/>
<path d="M7.71533 38.8151V31.5234H9.74619V38.8151C9.74619 39.3904 10.2008 39.8568 10.7616 39.8568H10.8497C11.3748 39.8568 11.8134 39.4459 11.8609 38.9094L12.5155 31.5234H14.5547L13.8834 39.098C13.8782 39.1576 13.8713 39.2168 13.8628 39.2752C13.8444 39.4033 13.8184 39.5288 13.7854 39.651C13.4265 40.9816 12.2392 41.9401 10.8497 41.9401H10.7616C9.07915 41.9401 7.71533 40.541 7.71533 38.8151Z" fill="#4A94FC"/>
<path d="M17.7859 38.9094L17.1313 31.5234H15.092L15.7633 39.098C15.7686 39.1576 15.7755 39.2168 15.784 39.2752C15.8024 39.4033 15.8284 39.5288 15.8614 39.651C16.2203 40.9816 17.4076 41.9401 18.7971 41.9401H18.8853C20.5676 41.9401 21.9316 40.541 21.9316 38.8151V31.5234H19.9007V38.8151C19.9007 39.3904 19.446 39.8568 18.8853 39.8568H18.7971C18.272 39.8568 17.8334 39.4459 17.7859 38.9094Z" fill="#4A94FC"/>
<path fill-rule="evenodd" clip-rule="evenodd" d="M1.62309 11.7319C1.06227 11.7319 0.607666 12.1983 0.607666 12.7736V28.3986C0.607666 28.9739 1.06227 29.4403 1.62309 29.4403H28.0242C28.585 29.4403 29.0397 28.9739 29.0397 28.3986V12.7736C29.0397 12.1983 28.585 11.7319 28.0242 11.7319H1.62309ZM2.63852 13.8153V27.3569H10.2542C10.2542 26.7761 10.5173 26.2707 10.79 25.8992C11.0753 25.5107 11.452 25.1572 11.858 24.8586C12.4122 24.451 13.096 24.0913 13.8082 23.8859V21.6278H12.9959C12.3839 21.6278 11.5271 22.0071 10.7044 22.5186C10.319 22.7582 9.98382 22.9993 9.74489 23.181C9.62589 23.2713 9.53206 23.346 9.46931 23.3969C9.43793 23.4223 9.41447 23.4418 9.39945 23.4543L9.38361 23.4677L9.38086 23.4698C9.38086 23.4698 9.38117 23.4696 8.73109 22.6694C8.08101 21.8692 8.08132 21.8689 8.08132 21.8689L8.08264 21.8679L8.08508 21.8658L8.09269 21.8593L8.11838 21.8378C8.14001 21.8197 8.17057 21.7944 8.20947 21.7629C8.28704 21.7 8.39793 21.6118 8.53603 21.5068C8.81111 21.2979 9.19941 21.0182 9.65178 20.7369C10.5045 20.2067 11.7801 19.5444 12.9959 19.5444H13.8082V17.4611H13.3005C12.7226 17.4611 11.9712 17.6686 11.2993 17.9192C10.9772 18.0394 10.698 18.16 10.5001 18.2503C10.4014 18.2952 10.3238 18.3322 10.2721 18.3575C10.2463 18.37 10.227 18.3795 10.2149 18.3856L10.2021 18.392L10.2004 18.3929C10.2004 18.3929 10.2006 18.3928 9.74652 17.4611C9.29242 16.5294 9.29273 16.5292 9.29273 16.5292L9.29608 16.5276L9.30268 16.5242L9.32451 16.5132C9.34289 16.504 9.36868 16.4912 9.40138 16.4753C9.46677 16.4435 9.55968 16.3991 9.67524 16.3464C9.90564 16.2414 10.2294 16.1015 10.6054 15.9613C11.3297 15.6911 12.3553 15.3778 13.3005 15.3778H13.8082V13.8153H2.63852ZM15.8391 21.6278H16.9561C17.7165 21.6278 18.4981 22.0093 19.1525 22.4805C19.4677 22.7073 19.7267 22.9357 19.9057 23.1066C19.9947 23.1915 20.0627 23.261 20.1065 23.3071C20.1284 23.3302 20.1442 23.3472 20.1534 23.3575L20.1622 23.367C20.1622 23.367 20.1615 23.3663 20.9162 22.6694C21.671 21.9726 21.6706 21.9721 21.6706 21.9721L21.6691 21.9705L21.6665 21.9676L21.6593 21.9594L21.6369 21.9346C21.6184 21.9143 21.5928 21.8866 21.5606 21.8528C21.4961 21.785 21.4046 21.6916 21.2889 21.5812C21.0587 21.3615 20.7274 21.069 20.3191 20.7751C19.5265 20.2045 18.328 19.5444 16.9561 19.5444H15.8391V17.4611H16.6007C17.3057 17.4611 17.9911 17.6706 18.5231 17.9003C18.7841 18.0131 18.9963 18.1255 19.1401 18.2079C19.2118 18.249 19.2659 18.2821 19.2997 18.3035C19.3166 18.3141 19.3284 18.3218 19.3349 18.3261L19.3379 18.3281C19.3379 18.3281 19.3375 18.3279 19.9008 17.4611C20.4641 16.5943 20.4636 16.594 20.4636 16.594L20.462 16.593L20.4594 16.5912L20.4524 16.5865L20.4317 16.5728C20.4149 16.5617 20.3923 16.547 20.364 16.5292C20.3077 16.4936 20.2288 16.4454 20.1299 16.3888C19.9328 16.2759 19.6529 16.1279 19.3111 15.9803C18.6373 15.6891 17.6726 15.3778 16.6007 15.3778H15.8391V13.8153H27.0088V27.3569H19.3931C19.3931 26.7714 19.1214 26.2582 18.8489 25.8856C18.5607 25.4915 18.1801 25.1284 17.7691 24.8218C17.2277 24.4179 16.5488 24.0504 15.8391 23.856V21.6278ZM17.355 27.3569C17.3416 27.3226 17.3071 27.249 17.2242 27.1356C17.0839 26.9437 16.8617 26.7209 16.5746 26.5066C15.9892 26.07 15.325 25.8066 14.8562 25.7949C14.3035 25.8428 13.6104 26.1332 13.0415 26.5517C12.758 26.7603 12.5446 26.9722 12.4122 27.1526C12.3355 27.2572 12.3038 27.3251 12.2915 27.3569H17.355Z" fill="#4A94FC"/>
</svg>
