<svg width="20" height="13" viewBox="0 0 20 13" fill="none" xmlns="http://www.w3.org/2000/svg">
<path d="M13.375 2.33333V10.6667H2.95833V2.33333H13.375ZM14.4167 0.25H1.91667C1.6404 0.25 1.37545 0.359747 1.1801 0.555097C0.984747 0.750448 0.875 1.0154 0.875 1.29167V11.7083C0.875 11.9846 0.984747 12.2496 1.1801 12.4449C1.37545 12.6403 1.6404 12.75 1.91667 12.75H14.4167C14.6929 12.75 14.9579 12.6403 15.1532 12.4449C15.3486 12.2496 15.4583 11.9846 15.4583 11.7083V8.0625L19.625 12.2292V0.770833L15.4583 4.9375V1.29167C15.4583 1.0154 15.3486 0.750448 15.1532 0.555097C14.9579 0.359747 14.6929 0.25 14.4167 0.25Z" fill="#4A94FC"/>
</svg>
