<svg width="25" height="26" viewBox="0 0 25 26" fill="none" xmlns="http://www.w3.org/2000/svg">
<path fill-rule="evenodd" clip-rule="evenodd" d="M0 13.1599C0 9.82871 1.30082 6.63395 3.6163 4.27843C5.93178 1.92292 9.07224 0.599609 12.3468 0.599609C15.6214 0.599609 18.7619 1.92292 21.0773 4.27843C23.3928 6.63395 24.6936 9.82871 24.6936 13.1599C24.6936 16.4911 23.3928 19.6859 21.0773 22.0414C18.7619 24.3969 15.6214 25.7202 12.3468 25.7202C9.07224 25.7202 5.93178 24.3969 3.6163 22.0414C1.30082 19.6859 0 16.4911 0 13.1599ZM11.6422 18.5357L18.7507 9.49565L17.4666 8.45063L11.4052 16.156L7.11177 12.5168L6.05817 13.803L11.6422 18.5374V18.5357Z" fill="#34A853"/>
</svg>
