<svg width="15" height="17" viewBox="0 0 15 17" fill="none" xmlns="http://www.w3.org/2000/svg">
<path d="M1.81315 16.1172C1.3661 16.1172 0.983391 15.9658 0.665035 15.663C0.346678 15.3602 0.1875 14.9962 0.1875 14.5711V3.74843C0.1875 3.32326 0.346678 2.95928 0.665035 2.6565C0.983391 2.35373 1.3661 2.20234 1.81315 2.20234H5.22702C5.40313 1.73851 5.69778 1.36487 6.11096 1.08142C6.52415 0.797975 6.98814 0.65625 7.50293 0.65625C8.01772 0.65625 8.4817 0.797975 8.89489 1.08142C9.30808 1.36487 9.60273 1.73851 9.77884 2.20234H13.1927C13.6398 2.20234 14.0225 2.35373 14.3408 2.6565C14.6592 2.95928 14.8184 3.32326 14.8184 3.74843V14.5711C14.8184 14.9962 14.6592 15.3602 14.3408 15.663C14.0225 15.9658 13.6398 16.1172 13.1927 16.1172H1.81315ZM1.81315 14.5711H13.1927V3.74843H1.81315V14.5711ZM3.4388 13.025H9.12858V11.4789H3.4388V13.025ZM3.4388 9.93279H11.5671V8.3867H3.4388V9.93279ZM3.4388 6.84061H11.5671V5.29452H3.4388V6.84061ZM7.50293 3.16865C7.67904 3.16865 7.82467 3.11389 7.93982 3.00437C8.05497 2.89486 8.11255 2.75636 8.11255 2.58886C8.11255 2.42137 8.05497 2.28287 7.93982 2.17335C7.82467 2.06384 7.67904 2.00908 7.50293 2.00908C7.32681 2.00908 7.18118 2.06384 7.06603 2.17335C6.95088 2.28287 6.89331 2.42137 6.89331 2.58886C6.89331 2.75636 6.95088 2.89486 7.06603 3.00437C7.18118 3.11389 7.32681 3.16865 7.50293 3.16865Z" fill="#4A94FC"/>
</svg>
