<svg width="40" height="44" viewBox="0 0 40 44" fill="none" xmlns="http://www.w3.org/2000/svg">
<path d="M10.8227 34.8525H13.7453V30.0722H18.1291V26.8854H13.7453V22.1051H10.8227V26.8854H6.43887V30.0722H10.8227V34.8525ZM22.0259 26.8854H33.7161V24.7608H22.0259V26.8854ZM22.0259 33.2591H29.8194V31.1345H22.0259V33.2591ZM3.51631 43.3508C2.73696 43.3508 2.05503 43.0321 1.47052 42.3947C0.886006 41.7574 0.59375 41.0138 0.59375 40.1639V14.6691C0.59375 13.8193 0.886006 13.0757 1.47052 12.4383C2.05503 11.8009 2.73696 11.4822 3.51631 11.4822H15.0604V4.04623C15.0604 3.1964 15.3527 2.4528 15.9372 1.81543C16.5217 1.17806 17.2036 0.859375 17.983 0.859375H22.2207C23.0001 0.859375 23.682 1.17806 24.2665 1.81543C24.851 2.4528 25.1433 3.1964 25.1433 4.04623V11.4822H36.6387C37.418 11.4822 38.1 11.8009 38.6845 12.4383C39.269 13.0757 39.5612 13.8193 39.5612 14.6691V40.1639C39.5612 41.0138 39.269 41.7574 38.6845 42.3947C38.1 43.0321 37.418 43.3508 36.6387 43.3508H3.51631ZM3.51631 40.1639H36.6387V14.6691H25.1433C25.1433 15.6605 24.8429 16.4396 24.2421 17.0061C23.6414 17.5727 22.8864 17.8559 21.9772 17.8559H18.1778C17.3011 17.8559 16.5623 17.5727 15.9616 17.0061C15.3608 16.4396 15.0604 15.6605 15.0604 14.6691H3.51631V40.1639ZM17.983 14.6691H22.2207V4.04623H17.983V14.6691Z" fill="#4A94FC"/>
</svg>
