<svg width="48" height="42" viewBox="0 0 48 42" fill="none" xmlns="http://www.w3.org/2000/svg">
<path d="M0.658203 13.8993V3.9868C0.658203 3.05386 1.01306 2.23754 1.72278 1.53784C2.4325 0.838133 3.26051 0.488281 4.2068 0.488281H44.4243C45.3706 0.488281 46.1986 0.838133 46.9083 1.53784C47.618 2.23754 47.9729 3.05386 47.9729 3.9868V19.147H44.4243V3.9868H4.2068V13.8993H0.658203ZM12.4869 30.2257C12.132 30.2257 11.8166 30.1479 11.5406 29.9925C11.2646 29.837 11.028 29.6037 10.8309 29.2928L6.63168 20.8963H0.658203V17.3978H7.7554C8.06319 17.3978 8.35699 17.4853 8.63682 17.6602C8.91664 17.8351 9.13542 18.0781 9.29313 18.389L12.4869 24.5697L20.3529 9.05965C20.5107 8.74867 20.735 8.52516 21.026 8.3891C21.3171 8.25305 21.6226 8.18502 21.9428 8.18502C22.2629 8.18502 22.5708 8.25305 22.8665 8.3891C23.1622 8.52516 23.389 8.74867 23.5467 9.05965L28.2781 18.4473C27.7656 18.7583 27.2727 19.1179 26.7996 19.5261C26.3264 19.9342 25.873 20.3521 25.4393 20.7797L21.9498 13.7827L14.0246 29.2928C13.8822 29.6037 13.6687 29.837 13.3839 29.9925C13.0991 30.1479 12.8001 30.2257 12.4869 30.2257ZM23.1918 37.8058H4.2068C3.26051 37.8058 2.4325 37.456 1.72278 36.7563C1.01306 36.0566 0.658203 35.2402 0.658203 34.3073V24.3948H4.2068V34.3073H21.7724C21.9301 34.9293 22.1272 35.5318 22.3638 36.1149C22.6004 36.6979 22.8764 37.2616 23.1918 37.8058ZM36.1379 41.8874C33.0272 41.8874 30.3777 40.8066 28.1894 38.6451C26.0011 36.4836 24.907 33.8694 24.907 30.8026C24.907 27.7358 26.0032 25.1237 28.1957 22.9663C30.3882 20.8088 33.0398 19.7301 36.1505 19.7301C39.2612 19.7301 41.9107 20.8109 44.099 22.9724C46.2873 25.134 47.3814 27.7482 47.3814 30.815C47.3814 33.8818 46.2852 36.4939 44.0927 38.6513C41.9002 40.8087 39.2486 41.8874 36.1379 41.8874ZM36.6174 31.9749L41.9994 26.6689L40.3434 25.0362L34.9613 30.3423L36.6174 31.9749Z" fill="#4A94FC"/>
</svg>
