<svg width="49" height="48" viewBox="0 0 49 48" fill="none" xmlns="http://www.w3.org/2000/svg">
<path d="M25.6174 47.9265L29.5432 44.3777C34.3414 40.0403 37.5137 36.7675 39.0602 34.5594C40.6067 32.3512 41.38 30.0051 41.38 27.521C41.38 26.4563 41.2115 25.4804 40.8744 24.5932C40.5374 23.706 40.0912 22.809 39.5361 21.9021H44.9489C45.9403 21.9021 46.7829 22.2471 47.4769 22.9371C48.1708 23.6272 48.5178 24.4651 48.5178 25.4508V47.9265H25.6174ZM0.932617 47.9265V25.4508C0.932617 24.4651 1.26968 23.6272 1.9438 22.9371C2.61793 22.2471 3.47049 21.9021 4.5015 21.9021H9.91432C9.3195 22.7301 8.86348 23.6173 8.54624 24.5636C8.22901 25.51 8.07039 26.4958 8.07039 27.521C8.07039 30.0051 8.82382 32.3315 10.3307 34.5002C11.8376 36.6689 15.0297 39.9614 19.9072 44.3777L23.833 47.9265H0.932617ZM41.38 19.5362C39.3576 19.5362 37.6624 18.856 36.2943 17.4957C34.9263 16.1353 34.2422 14.4496 34.2422 12.4386C34.2422 10.4671 34.9263 8.79129 36.2943 7.4112C37.6624 6.03112 39.3576 5.34108 41.38 5.34108C43.3627 5.34108 45.048 6.03112 46.4359 7.4112C47.8238 8.79129 48.5178 10.4671 48.5178 12.4386C48.5178 14.4496 47.8238 16.1353 46.4359 17.4957C45.048 18.856 43.3627 19.5362 41.38 19.5362ZM24.7252 17.1704C22.3856 17.1704 20.4128 16.3719 18.8068 14.7749C17.2008 13.178 16.3978 11.2163 16.3978 8.88986C16.3978 6.60287 17.2008 4.65104 18.8068 3.03438C20.4128 1.41771 22.3856 0.609375 24.7252 0.609375C27.0251 0.609375 28.988 1.41771 30.6139 3.03438C32.2397 4.65104 33.0526 6.60287 33.0526 8.88986C33.0526 11.2163 32.2397 13.178 30.6139 14.7749C28.988 16.3719 27.0251 17.1704 24.7252 17.1704ZM11.6393 27.521C11.6393 29.3348 12.5216 31.3556 14.2862 33.5835C16.0508 35.8113 19.5305 39.2714 24.7252 43.9636C29.8406 39.3502 33.3004 35.9296 35.1047 33.7018C36.909 31.4739 37.8111 29.4136 37.8111 27.521C37.8111 25.6283 37.1667 24.0215 35.878 22.7005C34.5892 21.3796 33.0129 20.7191 31.1492 20.7191C30.0785 20.7191 29.0971 20.9459 28.2049 21.3993C27.3126 21.8528 26.5096 22.4147 25.7959 23.085L24.7252 24.1496L23.5951 23.085C22.8813 22.4541 22.0783 21.9021 21.1861 21.4289C20.2938 20.9557 19.3322 20.7191 18.3012 20.7191C16.3978 20.7191 14.8116 21.3796 13.5427 22.7005C12.2737 24.0215 11.6393 25.6283 11.6393 27.521ZM8.07039 19.5362C6.04802 19.5362 4.3528 18.856 2.98473 17.4957C1.61665 16.1353 0.932617 14.4496 0.932617 12.4386C0.932617 10.4671 1.61665 8.79129 2.98473 7.4112C4.3528 6.03112 6.04802 5.34108 8.07039 5.34108C10.0531 5.34108 11.7384 6.03112 13.1263 7.4112C14.5142 8.79129 15.2082 10.4671 15.2082 12.4386C15.2082 14.4496 14.5142 16.1353 13.1263 17.4957C11.7384 18.856 10.0531 19.5362 8.07039 19.5362Z" fill="#4A94FC"/>
</svg>
